<?xml version="1.0" encoding="UTF-8" standalone="no"?>
<!-- Created with Inkscape (http://www.inkscape.org/) -->

<svg
   xmlns:dc="http://purl.org/dc/elements/1.1/"
   xmlns:cc="http://creativecommons.org/ns#"
   xmlns:rdf="http://www.w3.org/1999/02/22-rdf-syntax-ns#"
   xmlns:svg="http://www.w3.org/2000/svg"
   xmlns="http://www.w3.org/2000/svg"
   xmlns:sodipodi="http://sodipodi.sourceforge.net/DTD/sodipodi-0.dtd"
   xmlns:inkscape="http://www.inkscape.org/namespaces/inkscape"
   width="210mm"
   height="297mm"
   viewBox="0 0 744.09448819 1052.3622047"
   id="svg2"
   version="1.1"
   inkscape:version="0.91 r13725"
   sodipodi:docname="lightning.svg">
  <defs
     id="defs4" />
  <sodipodi:namedview
     id="base"
     pagecolor="#ffffff"
     bordercolor="#666666"
     borderopacity="1.0"
     inkscape:pageopacity="0.0"
     inkscape:pageshadow="2"
     inkscape:zoom="0.7"
     inkscape:cx="110.74959"
     inkscape:cy="641.81311"
     inkscape:document-units="px"
     inkscape:current-layer="layer1"
     showgrid="false"
     inkscape:window-width="1536"
     inkscape:window-height="801"
     inkscape:window-x="-8"
     inkscape:window-y="-8"
     inkscape:window-maximized="1" />
  <metadata
     id="metadata7">
    <rdf:RDF>
      <cc:Work
         rdf:about="">
        <dc:format>image/svg+xml</dc:format>
        <dc:type
           rdf:resource="http://purl.org/dc/dcmitype/StillImage" />
        <dc:title></dc:title>
      </cc:Work>
    </rdf:RDF>
  </metadata>
  <g
     inkscape:label="Layer 1"
     inkscape:groupmode="layer"
     id="layer1">
    <path
       style="fill:none;fill-rule:evenodd;stroke:#ffffff;stroke-width:4;stroke-linecap:butt;stroke-linejoin:miter;stroke-opacity:1;stroke-miterlimit:4;stroke-dasharray:none"
       d="m 337.14286,-0.49493869 c 2.2231,4.62640769 4.448,9.55840179 8.57143,12.85714269 1.34069,1.072557 2.82976,1.947172 4.28571,2.857143 7.17517,4.484482 6.03513,3.73185 12.85714,7.142857 1.90476,0.952381 3.88818,1.761479 5.71429,2.857143 5.4582,2.32567 9.3566,6.919304 14.28571,10 1.80589,1.12868 3.98137,1.619345 5.71429,2.857143 1.64399,1.174278 2.76528,2.955334 4.28571,4.285714 2.29469,2.007851 4.84817,3.706435 7.14286,5.714286 1.52043,1.33038 2.73367,2.992346 4.28571,4.285714 1.31899,1.099151 3.07167,1.643091 4.28572,2.857143 1.68359,1.683588 2.76146,3.885187 4.28571,5.714286 0.86225,1.034694 2.04902,1.779647 2.85715,2.857143 0.63887,0.851835 0.95238,1.904762 1.42857,2.857142 0.47619,0.952381 1.17032,1.824141 1.42857,2.857143 0.23099,0.923946 0,1.904762 0,2.857143 0,0.476191 0,0.952381 0,1.428572 0,0.47619 0,0.952381 0,1.428571 0,0.476191 0.21296,1.002654 0,1.428571 -0.30117,0.602339 -1.05502,0.86824 -1.42857,1.428572 -0.59064,0.885962 -0.67565,2.10422 -1.42857,2.857143 -0.33672,0.336717 -1.00266,-0.212959 -1.42858,0 -0.60233,0.301169 -0.95238,0.952381 -1.42857,1.428571 -0.47619,0.476191 -0.95238,0.952381 -1.42857,1.428572 -1.42857,1.428571 -2.99234,2.733673 -4.28571,4.285714 -1.09915,1.318981 -1.53816,3.186563 -2.85715,4.285714 -1.63599,1.36333 -3.88817,1.761479 -5.71428,2.857143 -2.94451,1.766706 -5.89004,3.569171 -8.57143,5.714283 -2.10346,1.68277 -3.55929,4.09804 -5.71429,5.71429 -1.70367,1.27775 -3.88817,1.76148 -5.71428,2.85714 -2.73202,1.63921 -11.24687,7.39528 -14.28572,10 -0.0708,0.0607 -8.52074,8.53088 -8.57142,8.57143 -0.83147,0.66517 -2.10422,0.67565 -2.85715,1.42857 -0.75292,0.75292 -0.78969,2.00531 -1.42857,2.85714 -0.80812,1.0775 -2.2548,1.65247 -2.85714,2.85715 -0.42592,0.85183 0.30117,1.95363 0,2.85714 -0.21296,0.63888 -1.21561,0.78969 -1.42857,1.42857 -0.30117,0.90351 0,1.90476 0,2.85714 0,0.47619 0,0.95239 0,1.42858 0,0.95238 0,1.90476 0,2.85714 0,0.47619 -0.15059,0.97682 0,1.42857 0.86487,2.59461 1.22264,2.65121 2.85714,4.28571 0.95238,0.95239 1.77965,2.04903 2.85714,2.85715 0.85184,0.63887 1.97118,0.83793 2.85715,1.42857 0.56033,0.37355 0.86824,1.05502 1.42857,1.42857 0.88596,0.59064 1.90476,0.95238 2.85714,1.42857 0.95238,0.47619 1.84699,1.09186 2.85714,1.42857 0.45176,0.15059 1.00266,-0.21296 1.42857,0 1.20468,0.60234 1.65247,2.25481 2.85715,2.85715 0.42592,0.21295 1.00265,-0.21296 1.42857,0 1.3076,0.6538 2.50915,3.24172 2.85714,4.28571 0.15059,0.45175 0,0.95238 0,1.42857 0,1.42857 0,2.85714 0,4.28572 0,1.42857 0,2.85714 0,4.28571 0,0.95238 0.23099,1.9332 0,2.85714 -0.5165,2.06601 -2.34064,3.64828 -2.85714,5.71429 -0.23099,0.92394 0.42592,2.00531 0,2.85714 -0.60234,1.20468 -2.25481,1.65247 -2.85714,2.85714 -0.42592,0.85184 0,1.90477 0,2.85715 0,0.95238 0.18677,1.92325 0,2.85714 -0.29532,1.4766 -1.13325,2.80911 -1.42858,4.28571 -0.18677,0.93389 0,1.90477 0,2.85715 0,0.47619 0,0.95238 0,1.42857 0,5.58064 -0.42591,0.15082 1.42858,5.71428 0.15058,0.45176 -0.21296,1.00266 0,1.42858 0.60233,1.20467 2.2548,1.65246 2.85714,2.85714 0.98525,1.97051 -1.73008,1.27782 1.42857,2.85714 0.42592,0.21296 1.09185,-0.33672 1.42857,0 0.33672,0.33672 -0.33672,1.09186 0,1.42857 0.67344,0.67344 2.18371,-0.67343 2.85714,0 0.33672,0.33672 0.47619,1.42857 0,1.42857 -0.47619,0 -0.47619,-1.42857 0,-1.42857 0.47619,0 0,0.95238 0,1.42857 0,0.47619 0.33672,1.09186 0,1.42858 -0.75292,0.75292 -2.0053,0.78969 -2.85714,1.42857 -1.07749,0.80812 -1.77965,2.04902 -2.85714,2.85714 -0.85184,0.63888 -1.94409,0.88074 -2.85714,1.42857 -1.47226,0.88335 -2.75005,2.08931 -4.28572,2.85714 -2.29364,1.14682 -4.91636,1.58487 -7.14286,2.85715 -1.16941,0.66823 -1.73647,2.11003 -2.85714,2.85714 -4.54431,3.02954 -7.90775,3.23959 -12.85714,5.71429 -1.53567,0.76783 -2.795,2.0053 -4.28572,2.85714 -1.849,1.05657 -3.88817,1.76148 -5.71428,2.85714 -2.94451,1.76671 -5.55686,4.06998 -8.57143,5.71429 -2.25124,1.22795 -4.7619,1.90476 -7.14286,2.85714 -2.38095,0.95238 -4.7619,1.90476 -7.14285,2.85714 -2.38096,0.95238 -4.81452,1.78253 -7.14286,2.85715 -3.86716,1.78484 -7.49702,4.07614 -11.42857,5.71428 -1.81236,0.75515 -3.85166,0.8077 -5.71429,1.42857 -5.47208,1.82403 -7.87876,3.2251 -12.85714,5.71429 -0.95238,0.47619 -2.10422,0.67565 -2.85714,1.42857 -0.33672,0.33672 0.21295,1.00265 0,1.42857 -2.97269,5.94537 0.0986,-1.52719 -2.85715,1.42857 -0.33671,0.33672 0.21296,1.00266 0,1.42857 -0.30117,0.60234 -1.05501,0.86824 -1.42857,1.42858 -0.59064,0.88596 -0.67565,2.10422 -1.42857,2.85714 -5.4,5.4 -0.31429,-2.54286 -5.71429,2.85714 -0.75292,0.75292 -0.83793,1.97118 -1.42857,2.85714 -0.37355,0.56034 -0.95238,0.95239 -1.42857,1.42858 -0.95238,0.95238 -1.90476,1.90476 -2.85714,2.85714 -0.95238,0.95238 -1.90476,1.90476 -2.85714,2.85714 -0.47619,0.47619 -0.82624,1.1274 -1.42858,1.42857 -0.42591,0.21296 -1.09185,-0.33671 -1.42857,0 -0.33671,0.33672 0,0.95238 0,1.42857 0,0.47619 0,0.95239 0,1.42858 0,0.95238 0,1.90476 0,2.85714 0,0.47619 -0.15058,0.97682 0,1.42857 0.33672,1.01015 0.95238,1.90476 1.42857,2.85714 0.47619,0.95238 0.7897,2.00531 1.42858,2.85715 0.80812,1.07749 1.90476,1.90476 2.85714,2.85714 1.42857,1.42857 2.85714,2.85714 4.28571,4.28571 1.42857,1.42857 2.99235,2.73368 4.28572,4.28572 1.09915,1.31898 1.73978,2.98212 2.85714,4.28571 1.75306,2.04524 3.80952,3.80953 5.71429,5.71429 1.42857,1.42857 2.99234,2.73367 4.28571,4.28571 1.09915,1.31898 1.75799,2.96673 2.85714,4.28572 1.29337,1.55204 3.16505,2.60471 4.28572,4.28571 5.76214,8.64322 -2.07107,0.57191 2.85714,7.14286 0.80812,1.07749 2.04902,1.77964 2.85714,2.85714 0.0533,0.0711 2.78652,5.60835 2.85715,5.71429 0.37355,0.56033 1.05501,0.86824 1.42857,1.42857 0.59064,0.88596 0.83793,1.97118 1.42857,2.85714 2.17934,3.26901 1.13081,-0.89327 2.85714,4.28571 0.15059,0.45176 0,0.95239 0,1.42858 0,0.47619 0,0.95238 0,1.42857 0,0.95238 0.42592,2.0053 0,2.85714 -0.60234,1.20468 -2.04902,1.77965 -2.85714,2.85714 -0.63888,0.85184 -0.67565,2.10422 -1.42857,2.85715 -2.32033,2.32032 -7.38562,4.22035 -10,5.71428 -2.98143,1.70367 -5.59001,4.01062 -8.57143,5.71429 -1.849,1.05657 -3.86529,1.80057 -5.71429,2.85714 -0.0796,0.0455 -8.52577,5.69146 -8.57143,5.71429 -1.34687,0.67343 -3.03277,0.59327 -4.28571,1.42857 -3.77898,2.51932 -4.04611,3.80649 -5.71429,7.14285 -1.26984,2.53969 -2.26871,4.20071 -2.85714,7.14286 -0.18678,0.93389 0,1.90476 0,2.85714 0,4.01553 -0.23098,3.59276 1.42857,8.57143 0.33672,1.01016 1.03312,1.86851 1.42857,2.85715 0.55926,1.39814 0.68147,2.97827 1.42858,4.28571 1.18128,2.06725 2.90181,3.77683 4.28571,5.71429 1.99589,2.79424 3.65397,5.82434 5.71429,8.57142 1.82946,2.43929 4.2335,4.47746 5.71428,7.14286 0.9535,1.71631 0.65516,3.90965 1.42857,5.71429 0.67633,1.5781 2.25429,2.6781 2.85715,4.28571 0.85256,2.27351 0.83967,4.78725 1.42857,7.14286 0.0295,0.11785 2.84725,8.51209 2.85714,8.57143 0.23486,1.40913 -0.17719,2.86817 0,4.28571 0.30117,2.40936 1.1274,4.7335 1.42857,7.14286 0.17719,1.41754 -0.20203,2.8715 0,4.28571 0.27767,1.94365 1.04352,3.78903 1.42857,5.71429 0.56806,2.8403 0.80022,5.74385 1.42857,8.57143 0.97806,4.40125 2.34465,5.63258 4.28572,10 1.04149,2.34334 1.95673,4.74177 2.85714,7.14285 0.52874,1.40997 0.75514,2.93885 1.42857,4.28572 0.76784,1.53567 1.94718,2.82976 2.85715,4.28571 1.47161,2.35459 2.93725,4.71564 4.28571,7.14286 1.03422,1.8616 1.80057,3.86529 2.85714,5.71429 2.00118,3.50205 6.30837,8.84221 8.57143,11.42857 1.33038,1.52043 2.75179,2.97091 4.28572,4.28571 4.24431,3.63798 9.81514,6.8706 14.28571,10 1.95055,1.36539 3.63296,3.12942 5.71429,4.28572 2.24165,1.24536 4.79951,1.81565 7.14285,2.85714 1.94605,0.86491 3.73702,2.06623 5.71429,2.85714 2.79629,1.11852 5.63145,2.20382 8.57143,2.85714 10.89805,0 -1.12694,-0.63887 7.14285,1.42858 0.92395,0.23098 2.18371,-0.67344 2.85715,0 0.47619,0.47619 -0.95238,0.95238 -1.42857,1.42857 -0.95239,0.95238 -1.90477,1.90476 -2.85715,2.85714 -0.47619,0.47619 -1.05501,0.86824 -1.42857,1.42857 -0.59064,0.88596 -0.83793,1.97118 -1.42857,2.85714 -0.37355,0.56034 -1.21561,0.7897 -1.42857,1.42858 -0.30117,0.9035 0,1.90476 0,2.85714 0,1.42857 0,2.85714 0,4.28571 0,0.95238 0,1.90476 0,2.85715 0,0.95238 -0.42592,2.0053 0,2.85714 0.60234,1.20468 2.04902,1.77965 2.85714,2.85714 0.63888,0.85184 0.83793,1.97118 1.42857,2.85714 0.37356,0.56034 0.95238,0.95239 1.42857,1.42858 0.95239,0.95238 1.90477,1.90476 2.85715,2.85714 0.95238,0.95238 2.04902,1.77965 2.85714,2.85714 0.63888,0.85184 0.7897,2.00531 1.42857,2.85714 0.80812,1.0775 2.04902,1.77965 2.85714,2.85715 0.63888,0.85183 0.7897,2.0053 1.42858,2.85714 0.80812,1.0775 1.99489,1.82245 2.85714,2.85714 1.52425,1.8291 2.76146,3.88519 4.28571,5.71429 0.86225,1.03469 1.90476,1.90476 2.85715,2.85714 0.95238,0.95238 1.82244,1.9949 2.85714,2.85714 1.8291,1.52425 3.88519,2.76147 5.71428,4.28572 1.0347,0.86224 1.80542,2.01576 2.85715,2.85714 1.34069,1.07256 2.94502,1.78459 4.28571,2.85714 1.05173,0.84139 1.70221,2.16419 2.85714,2.85715 1.29126,0.77475 2.99447,0.65382 4.28572,1.42857 1.15493,0.69296 1.90476,1.90476 2.85714,2.85714 0.95238,0.95238 1.90476,1.90476 2.85714,2.85714 1.42858,1.42858 3.24628,2.55332 4.28572,4.28572 0.48999,0.81666 -0.23099,1.9332 0,2.85714 0.25825,1.033 1.21975,1.81303 1.42857,2.85714 0.28017,1.40083 0,2.85715 0,4.28572 0,0.95238 0,1.90476 0,2.85714 0,0.95238 0.23099,1.9332 0,2.85714 -0.25825,1.03301 -1.09185,1.84699 -1.42857,2.85715 -0.10253,0.30757 0.10634,2.64446 0,2.85714 -0.30117,0.60234 -1.1274,0.82623 -1.42857,1.42857 -0.21296,0.42592 0.21296,1.00266 0,1.42857 -1.76529,3.53058 -1.42857,-0.49311 -1.42857,2.85715"
       id="path4156"
       inkscape:connector-curvature="0"
       inkscape:export-filename="C:\Users\Darsh\Desktop\GGJ18\PortalPong\Assets\Sprites\elctricity.png"
       inkscape:export-xdpi="90"
       inkscape:export-ydpi="90" />
    <path
       style="fill:none;fill-rule:evenodd;stroke:#ffffff;stroke-width:3;stroke-linecap:butt;stroke-linejoin:miter;stroke-opacity:1;stroke-miterlimit:4;stroke-dasharray:none"
       d="m 417.14286,69.505061 c 8.13149,3.252598 4.84922,1.710325 10,4.285715 0.95238,0.47619 1.94409,0.880739 2.85714,1.428571 1.47225,0.883353 2.795,2.005308 4.28571,2.857143 1.84901,1.056572 3.94237,1.67586 5.71429,2.857143 1.12066,0.747109 1.90476,1.904762 2.85714,2.857143 1.42857,1.428571 2.75179,2.970917 4.28572,4.285714 1.80775,1.549503 3.90653,2.736211 5.71428,4.285714 1.53393,1.314797 2.85715,2.857143 4.28572,4.285715 3.33333,3.333333 6.66666,6.666671 10,10.000001 1.42857,1.42857 2.99234,2.73367 4.28571,4.28571 1.09915,1.31898 1.73978,2.98213 2.85714,4.28572 1.75307,2.04524 3.80953,3.80952 5.71429,5.71428 0.95238,0.95238 2.01576,1.80542 2.85714,2.85715 1.07256,1.34069 1.90477,2.85714 2.85715,4.28571 0.95238,1.42857 1.97379,2.81346 2.85714,4.28571 0.54783,0.91306 0.95238,1.90477 1.42857,2.85715 0.47619,0.95238 1.17032,1.82414 1.42857,2.85714 0.23099,0.92395 -0.30117,1.95363 0,2.85714 0.21296,0.63888 1.1274,0.82624 1.42857,1.42857 0.21296,0.42592 -0.15058,0.97682 0,1.42858 0.33672,1.01015 1.09186,1.84699 1.42857,2.85714 0.15059,0.45175 -0.21295,1.00265 0,1.42857 0.60234,1.20468 2.25481,1.65247 2.85715,2.85714 0.21296,0.42592 0,0.95238 0,1.42857 0,0.47619 0,0.95239 0,1.42858 0,0.47619 -0.33672,1.09185 0,1.42857 0.33671,0.33671 1.09185,-0.33672 1.42857,0 0.33672,0.33671 -0.21296,1.00265 0,1.42857 0.30117,0.60234 1.1274,0.82623 1.42857,1.42857 0.21296,0.42592 -0.21296,1.00265 0,1.42857 0.81887,1.63774 2.98073,1.98716 4.28571,2.85714 0.56034,0.37356 0.86824,1.05502 1.42858,1.42858 1.63265,1.08843 5.48344,2.52526 7.14285,2.85714 0.93389,0.18678 1.9332,-0.23099 2.85715,0 4.14319,1.0358 1.6718,1.11454 4.28571,2.85714 0.88596,0.59064 1.90476,0.95238 2.85714,1.42857 0.95238,0.47619 2.10422,0.67565 2.85715,1.42857 0.33671,0.33672 -0.26415,1.03236 0,1.42858 0.74711,1.12066 2.04902,1.77964 2.85714,2.85714 0.63888,0.85183 0.83793,1.97118 1.42857,2.85714 0.37355,0.56033 1.1274,0.82623 1.42857,1.42857 0.67344,1.34687 0.75514,2.93885 1.42857,4.28572 0.30117,0.60234 1.21562,0.78969 1.42857,1.42857 0.30117,0.90351 -0.23098,1.9332 0,2.85714 0.0289,0.11575 2.79985,5.5424 2.85715,5.71429 0.15058,0.45175 -0.26415,1.03235 0,1.42857 0.74711,1.12066 2.2548,1.65246 2.85714,2.85714 0.71429,1.42857 -0.35714,2.85714 0,4.28572 0.36522,1.46088 1.06335,2.82482 1.42857,4.28571 0.11549,0.46197 -0.15058,0.97682 0,1.42857 4.04692,8.09384 -0.5324,-2.12959 1.42857,5.71429 0.25825,1.033 1.17032,1.82414 1.42857,2.85714 0.23099,0.92395 -0.30116,1.95363 0,2.85714 0.21296,0.63888 1.21562,0.7897 1.42858,1.42857 0.30117,0.90351 0,1.90477 0,2.85715 0,0.47619 -0.15059,0.97681 0,1.42857 4.04691,8.09384 -0.5324,-2.12959 1.42857,5.71428 0.25825,1.03301 1.17032,1.82414 1.42857,2.85715 0.0433,0.17329 -0.043,5.4993 0,5.71428 1.48634,7.43172 0.95238,1.42857 2.85714,7.14286 0.62088,1.86263 0.8077,3.85166 1.42857,5.71429 0.014,0.0421 2.82921,5.64444 2.85715,5.71428 0.55925,1.39814 0.65382,2.99446 1.42857,4.28572 0.69296,1.15493 2.04902,1.77964 2.85714,2.85714 0.63888,0.85183 0.95238,1.90476 1.42857,2.85714 0.47619,0.95238 0.95238,1.90476 1.42857,2.85714 1.42857,2.85715 2.85715,5.71429 4.28572,8.57143 0.47619,0.95238 0.88074,1.94409 1.42857,2.85715 6.9919,11.65317 -1.0144,-1.82873 5.71428,7.14285 0.63888,0.85184 0.7897,2.00531 1.42858,2.85715 0.80812,1.07749 1.90476,1.90476 2.85714,2.85714 0.47619,0.47619 1.21561,0.78969 1.42857,1.42857 1.13162,3.39485 -1.6911,2.59461 1.42857,5.71429 0.33672,0.33671 1.09186,-0.33672 1.42857,0 0.33672,0.33671 -0.33671,1.09185 0,1.42857 5.57534,5.57533 0.76722,-0.33068 4.28572,1.42857 0.60234,0.30117 0.75513,1.42857 1.42857,1.42857 0.47619,0 -0.47619,-1.42857 0,-1.42857 0.67343,0 0.75514,1.42857 1.42857,1.42857 0.67344,0 0.75514,-1.42857 1.42857,-1.42857 0.67344,0 0.75514,1.42857 1.42857,1.42857 0.47619,0 -0.47619,-1.42857 0,-1.42857 2.97269,0 0.57482,2.00338 1.42857,2.85714 0.33259,0.33258 2.26122,-0.29796 2.85715,0 0.60234,0.30117 0.82623,1.1274 1.42857,1.42857 0.42592,0.21296 1.09185,-0.33671 1.42857,0 0.33258,0.33258 -0.29797,2.26121 0,2.85715 0.30117,0.60233 1.1274,0.82623 1.42857,1.42857 0.21296,0.42591 -0.21296,1.00265 0,1.42857 0.30117,0.60234 1.1274,0.82623 1.42857,1.42857 0.42592,0.85184 -0.42591,2.00531 0,2.85714 0.30117,0.60234 1.12741,0.82624 1.42857,1.42857 0.21296,0.42592 -0.21295,1.00266 0,1.42858 0.30117,0.60233 1.12741,0.82623 1.42858,1.42857 0.21295,0.42591 -0.33672,1.09185 0,1.42857 0.33671,0.33672 1.09185,-0.33672 1.42857,0 0.33671,0.33672 -0.15059,0.97682 0,1.42857 0.33671,1.01015 0.83793,1.97118 1.42857,2.85714 0.74711,1.12067 2.04902,1.77965 2.85714,2.85715 1.03016,1.37354 1.82699,2.91217 2.85714,4.28571 0.40407,0.53875 1.05502,0.86824 1.42858,1.42857 0.59064,0.88596 0.78969,2.00531 1.42857,2.85714 0.80812,1.0775 1.90476,1.90477 2.85714,2.85715 0.95238,0.95238 1.90476,1.90476 2.85714,2.85714 0.47619,0.47619 1.05502,0.86824 1.42857,1.42857 0.4762,0.95238 0.95239,1.90476 1.42858,2.85714 0,0.47619 -0.21296,1.00266 0,1.42858 3.269,6.53801 -0.59211,-6.06203 2.85714,4.28571 0.10252,0.30758 -0.10634,2.64446 0,2.85714 0.30117,0.60234 1.1274,0.82624 1.42857,1.42857 0.21296,0.42592 0,0.95239 0,1.42858 0,2.102 -0.33672,1.09185 1.42857,2.85714"
       id="path4158"
       inkscape:connector-curvature="0"
       inkscape:export-filename="C:\Users\Darsh\Desktop\GGJ18\PortalPong\Assets\Sprites\elctricity.png"
       inkscape:export-xdpi="90"
       inkscape:export-ydpi="90" />
    <path
       style="fill:none;fill-rule:evenodd;stroke:#ffffff;stroke-width:3;stroke-linecap:butt;stroke-linejoin:miter;stroke-opacity:1;stroke-miterlimit:4;stroke-dasharray:none"
       d="m 338.57143,243.79078 c 0,3.80952 0,7.61904 0,11.42857 0,0.47619 0,0.95238 0,1.42857 0,0.47619 -0.21296,1.00265 0,1.42857 0.30117,0.60234 1.1274,0.82623 1.42857,1.42857 0.21296,0.42592 0,0.95238 0,1.42857 0.47619,0.95238 0.83793,1.97118 1.42857,2.85715 0.37356,0.56033 0.95238,0.95238 1.42857,1.42857 0.95238,0.95238 1.77965,2.04902 2.85715,2.85714 0.85183,0.63888 2.0053,0.78969 2.85714,1.42857 6.78399,5.088 -2.17548,1.10847 8.57143,5.71429 3.86207,1.65517 4.70936,1.20197 8.57143,2.85714 1.9574,0.83889 3.80952,1.90476 5.71428,2.85714 0.95238,0.47619 1.86851,1.03312 2.85714,1.42857 5.28106,2.11243 3.75506,0.43262 8.57143,4.28572 1.05173,0.84138 1.90476,1.90476 2.85715,2.85714 1.6345,1.6345 1.99227,1.6911 2.85714,4.28572 0.15058,0.45175 0,0.95238 0,1.42857 0,0.95238 0,1.90476 0,2.85714 0,0.47619 -0.15059,0.97682 0,1.42857 0.33672,1.01015 1.09185,1.84699 1.42857,2.85714 0.15058,0.45176 0,0.95239 0,1.42858 0,0.95238 -0.30117,1.95363 0,2.85714 0.21296,0.63888 1.1274,0.82623 1.42857,1.42857 0.21296,0.42592 0,0.95238 0,1.42857 0,0.47619 0,0.95238 0,1.42857 0,2.38096 0,4.76191 0,7.14286 0,0.47619 0,0.95238 0,1.42857 0,0.47619 -0.33672,1.09186 0,1.42857 0.33672,0.33672 1.09186,-0.33671 1.42857,0 0.33672,0.33672 0,0.95238 0,1.42857 0,0.95239 0,1.90477 0,2.85715 0,0.47619 -0.33671,1.09185 0,1.42857 0.33672,0.33672 1.09186,-0.33672 1.42857,0 0.33672,0.33672 -0.33671,1.09185 0,1.42857 0.33672,0.33672 1.00266,-0.21296 1.42858,0 0.60233,0.30117 0.86824,1.05502 1.42857,1.42857 0.88596,0.59064 1.97118,0.83793 2.85714,1.42857 0.56033,0.37356 0.95238,0.95238 1.42857,1.42857 0.95238,0.95239 1.80542,2.01576 2.85714,2.85715 1.3407,1.07255 2.85715,1.90476 4.28572,2.85714 1.42857,0.95238 2.75004,2.08931 4.28571,2.85714 1.34687,0.67344 2.90966,0.81699 4.28572,1.42857 2.91906,1.29737 5.71428,2.85715 8.57143,4.28572 1.90476,0.95238 3.80952,1.90476 5.71428,2.85714 1.90476,0.95238 3.78449,1.95657 5.71429,2.85714 5.21402,2.43322 10.5679,4.56967 15.71428,7.14286 1.53567,0.76784 2.78485,2.02333 4.28572,2.85714 2.79239,1.55133 5.77903,2.73439 8.57143,4.28572 1.50086,0.83381 2.75004,2.08931 4.28571,2.85714 12.36396,6.18198 -6.12036,-5.80026 10,5.71429 13.19104,8.79403 -3.03513,-2.42811 7.14286,5.71428 1.67024,2.59251 4.92154,2.61973 7.14285,4.28572 1.0775,0.80812 1.90477,1.90476 2.85715,2.85714 0.47619,0.47619 0.82623,1.1274 1.42857,1.42857 0.42592,0.21296 1.00265,-0.21296 1.42857,0 3.15865,1.57933 0.44332,0.88663 1.42857,2.85714 0.30117,0.60234 0.95238,0.95239 1.42857,1.42858 0.47619,0.47619 0.82624,1.1274 1.42857,1.42857 0.42592,0.21296 1.09186,-0.33672 1.42858,0 0.33671,0.33671 -0.21296,1.00265 0,1.42857 0.30117,0.60234 0.95238,0.95238 1.42857,1.42857 0.47619,0.47619 0.75513,1.42857 1.42857,1.42857 0.47619,0 -0.47619,-1.42857 0,-1.42857 0.47619,0 0,0.95238 0,1.42857 0,1.42857 0,2.85714 0,4.28572 0,0.95238 0,1.90476 0,2.85714 0,0.47619 0.21296,1.00265 0,1.42857 -0.30117,0.60234 -1.1274,0.82623 -1.42857,1.42857 -0.21296,0.42592 0.21296,1.00266 0,1.42857 -0.30117,0.60234 -1.1274,0.82624 -1.42857,1.42857 -0.21296,0.42592 0,0.95239 0,1.42858 -0.47619,0.95238 -0.7897,2.0053 -1.42858,2.85714 -0.80812,1.07749 -2.04902,1.77965 -2.85714,2.85714 -0.63887,0.85184 -0.67565,2.10422 -1.42857,2.85714 -1.68359,1.68359 -3.88519,2.76147 -5.71429,4.28572 -1.03469,0.86224 -1.90476,1.90476 -2.85714,2.85714 -1.90476,1.90476 -3.80952,3.80953 -5.71428,5.71429 -0.95238,0.95238 -1.77965,2.04902 -2.85715,2.85714 -0.85183,0.63888 -2.10422,0.67565 -2.85714,1.42857 -1.21405,1.21405 -1.64309,3.07166 -2.85714,4.28572 -0.75293,0.75292 -1.90476,0.95238 -2.85715,1.42857 -0.95238,0.47619 -2.0053,0.78969 -2.85714,1.42857 -1.07749,0.80812 -1.77965,2.04902 -2.85714,2.85714 -2.4965,1.87237 -4.26179,1.41661 -7.14286,2.85714 -3.07133,1.53567 -5.50009,4.17862 -8.57143,5.71429 -0.42591,0.21296 -0.95238,0 -1.42857,0 -0.95238,0 -2.00531,-0.42592 -2.85714,0 -0.42592,0.21296 0.33672,1.09185 0,1.42857 -0.33672,0.33672 -0.95238,0 -1.42857,0 -0.47619,0 -0.95238,0 -1.42857,0 -0.47619,0 -1.09186,-0.33672 -1.42858,0 -0.33671,0.33672 0.33672,1.09186 0,1.42857 -0.33671,0.33672 -1.00265,-0.21296 -1.42857,0 -0.60234,0.30117 -0.75513,1.42857 -1.42857,1.42857 -0.47619,0 -0.47619,-1.42857 0,-1.42857 0.47619,0 0.21296,1.00266 0,1.42857 -0.30117,0.60234 -0.82623,1.12741 -1.42857,1.42858 -0.42592,0.21295 -0.97682,-0.15059 -1.42857,0 -5.17899,1.72632 -1.01671,0.6778 -4.28572,2.85714 -0.88596,0.59064 -1.90476,0.95238 -2.85714,1.42857 -1.90476,0.95238 -3.80952,1.90476 -5.71428,2.85714 -0.95239,0.47619 -1.90477,0.95238 -2.85715,1.42857 -0.95238,0.47619 -1.8685,1.03312 -2.85714,1.42858 -1.39814,0.55925 -2.88757,0.86931 -4.28571,1.42857 -0.98864,0.39545 -1.84699,1.09185 -2.85715,1.42857 -0.45175,0.15058 -1.09185,-0.33672 -1.42857,0 -0.33672,0.33672 0.33672,1.09185 0,1.42857 -0.33672,0.33672 -1.09185,-0.33672 -1.42857,0 -0.33672,0.33672 0.33672,1.09185 0,1.42857 -0.33672,0.33672 -1.09185,-0.33672 -1.42857,0 -0.33672,0.33672 0,0.95238 0,1.42857 0,1.42857 0,2.85715 0,4.28572 0,0.47619 0.21296,1.00265 0,1.42857 -0.30117,0.60234 -1.21561,0.78969 -1.42857,1.42857 -0.30117,0.90351 0,1.90476 0,2.85714 0,0.47619 0,0.95238 0,1.42857 0,0.47619 0.15058,0.97682 0,1.42858 -0.33672,1.01015 -1.09186,1.84699 -1.42857,2.85714 -0.15059,0.45175 0,0.95238 0,1.42857 0,0.47619 0,0.95238 0,1.42857 0,0.47619 -0.21296,1.00266 0,1.42857 0.30117,0.60234 1.1274,0.82624 1.42857,1.42857 0.21296,0.42592 0,0.95239 0,1.42858 0,0.47619 0,0.95238 0,1.42857 0,2.38095 0,4.7619 0,7.14285 0,0.47619 -0.15059,0.97682 0,1.42858 0.33671,1.01015 1.17032,1.82414 1.42857,2.85714 0.23099,0.92394 -0.30117,1.95363 0,2.85714 0.21296,0.63888 0.95238,0.95238 1.42857,1.42857 0.47619,0.47619 0.95238,0.95238 1.42857,1.42857 0.47619,0.47619 1.1274,0.82624 1.42857,1.42858 0.98526,1.97051 -1.73008,1.27781 1.42857,2.85714 1.97051,0.98525 1.27782,-1.73008 2.85715,1.42857 0.21296,0.42592 -0.33672,1.09185 0,1.42857 0.33671,0.33672 1.00265,-0.21296 1.42857,0 0.60234,0.30117 0.82623,1.1274 1.42857,1.42857 0.42592,0.21296 1.00265,-0.21296 1.42857,0 0.60234,0.30117 0.7897,1.21562 1.42857,1.42857 0.90351,0.30117 1.90476,0 2.85715,0 0.47619,0 0.95238,0 1.42857,0 0.47619,0 1.09185,-0.33671 1.42857,0 0.33672,0.33672 -0.33672,1.09186 0,1.42858 0.33258,0.33258 2.26121,-0.29797 2.85714,0 0.60234,0.30117 0.82623,1.1274 1.42857,1.42857 0.42592,0.21296 1.09186,-0.33672 1.42857,0 0.33672,0.33671 -0.21295,1.00265 0,1.42857 2.97269,5.94537 -0.0986,-1.52719 2.85715,1.42857 0.33671,0.33672 -0.21296,1.00265 0,1.42857 1.30065,2.60131 1.08368,0.83742 2.85714,1.42857 1.01015,0.33672 1.97118,0.83793 2.85714,1.42857 0.56033,0.37356 0.77525,1.26524 1.42857,1.42858 1.38592,0.34648 2.85715,0 4.28572,0 0.47619,0 0.97682,-0.15059 1.42857,0 1.01015,0.33671 1.84699,1.09185 2.85714,1.42857 0.45176,0.15058 0.9666,-0.1155 1.42857,0 1.46089,0.36522 2.82483,1.06335 4.28572,1.42857 0.46197,0.11549 0.95238,0 1.42857,0 0.47619,0 0.95238,0 1.42857,0 0.47619,0 1.09186,-0.33672 1.42857,0 0.33672,0.33672 0.47619,1.42857 0,1.42857 -0.47619,0 -0.47619,-1.42857 0,-1.42857 0.67344,0 0.82624,1.1274 1.42857,1.42857 0.85184,0.42592 2.00531,-0.42592 2.85715,0 0.60234,0.30117 0.82623,1.1274 1.42857,1.42857 0.42592,0.21296 0.95238,0 1.42857,0 0.47619,0 1.09185,0.33672 1.42857,0 0.33672,-0.33672 -0.47619,-1.42857 0,-1.42857 0.67344,0 0.75514,1.42857 1.42857,1.42857 0.47619,0 -0.47619,-1.42857 0,-1.42857 0.67344,0 0.82624,1.1274 1.42857,1.42857 0.42592,0.21296 0.95239,0 1.42858,0 2.38095,0 4.7619,0 7.14285,0 1.42857,0 2.85715,0 4.28572,0 0.47619,0 1.09185,-0.33672 1.42857,0 0.33672,0.33672 -0.33672,1.09186 0,1.42857 0.33672,0.33672 0.95238,0 1.42857,0 0.95238,0 1.90476,0 2.85714,0 0.47619,0 1.09186,-0.33671 1.42857,0 0.33672,0.33672 -0.33671,1.09186 0,1.42857 0.33672,0.33672 0.95239,0 1.42858,0 0.47619,0 0.97681,-0.15058 1.42857,0 1.01015,0.33672 1.82414,1.17033 2.85714,1.42858 1.84789,0.46197 3.8664,-0.46198 5.71429,0 1.033,0.25825 1.82414,1.17032 2.85714,1.42857 0.92394,0.23098 1.90476,0 2.85714,0 0.47619,0 0.9666,-0.1155 1.42857,0 1.46089,0.36522 2.82483,1.06335 4.28572,1.42857 0.46197,0.11549 1.00265,-0.21296 1.42857,0 0.60234,0.30117 0.82623,1.1274 1.42857,1.42857 0.59593,0.29797 2.52456,-0.33258 2.85714,0 0.33672,0.33672 -0.33671,1.09185 0,1.42857 0.33672,0.33672 1.09186,-0.33672 1.42857,0 0.33672,0.33672 -0.33671,1.09186 0,1.42857 0.33672,0.33672 1.09186,-0.33671 1.42858,0 2.95576,2.95577 -4.5168,-0.11554 1.42857,2.85715 0.42592,0.21295 1.09185,-0.33672 1.42857,0 2.95576,2.95576 -4.5168,-0.11555 1.42857,2.85714 0.42592,0.21296 1.00265,-0.21296 1.42857,0 0.60234,0.30117 0.82623,1.1274 1.42857,1.42857 0.42592,0.21296 1.09186,-0.33672 1.42857,0 0.33672,0.33672 -0.33671,1.09185 0,1.42857 0.67344,0.67344 2.18371,-0.67343 2.85715,0 0.33671,0.33672 -0.42592,1.21561 0,1.42857 0.85183,0.42592 2.0053,-0.42591 2.85714,0 0.42592,0.21296 -0.33672,1.09186 0,1.42857 0.33672,0.33672 0.95238,0 1.42857,0 0.47619,0 0.95238,0 1.42857,0 0.47619,0 1.00266,-0.21295 1.42857,0 6.53802,3.26901 -6.06202,-0.5921 4.28572,2.85715 0.45175,0.15058 0.95238,0 1.42857,0 0.47619,0.47619 0.82623,1.1274 1.42857,1.42857 0.42592,0.21296 1.09186,-0.33672 1.42857,0 2.95577,2.95576 -4.5168,-0.11554 1.42857,2.85714 0.42592,0.21296 1.00266,-0.21296 1.42858,0 0.60233,0.30117 0.86824,1.05502 1.42857,1.42857 1.77192,1.18129 3.94236,1.67586 5.71428,2.85715 0.56033,0.37355 0.82624,1.1274 1.42857,1.42857 0.42592,0.21296 1.09186,-0.33672 1.42858,0 0.33671,0.33671 -0.33672,1.09185 0,1.42857 0.33671,0.33672 1.09185,-0.33672 1.42857,0 0.75292,0.75292 0.83793,1.97118 1.42857,2.85714 0.37355,0.56033 0.95238,0.95238 1.42857,1.42857 0.95238,0.95238 1.90476,1.90476 2.85714,2.85715 0.47619,0.47619 1.12741,0.82623 1.42857,1.42857 0.21296,0.42592 -0.33671,1.09185 0,1.42857 0.33672,0.33672 1.09186,-0.33672 1.42858,0 0.33258,0.33258 -0.29797,2.26121 0,2.85714 0.30117,0.60234 1.1274,0.82623 1.42857,1.42857 0.21296,0.42592 -0.33672,1.09186 0,1.42857 3.80952,0 -0.47619,-0.47619 1.42857,1.42858 0.33672,0.33671 1.42857,-0.47619 1.42857,0 0,0.47619 -0.95238,0 -1.42857,0"
       id="path4160"
       inkscape:connector-curvature="0"
       inkscape:export-filename="C:\Users\Darsh\Desktop\GGJ18\PortalPong\Assets\Sprites\elctricity.png"
       inkscape:export-xdpi="90"
       inkscape:export-ydpi="90" />
    <path
       style="fill:none;fill-rule:evenodd;stroke:#ffffff;stroke-width:3;stroke-linecap:butt;stroke-linejoin:miter;stroke-opacity:1;stroke-miterlimit:4;stroke-dasharray:none"
       d="m 243.57143,303.79078 c -3.12652,2.34488 -2.01535,1.30106 -3.57143,2.85714 -0.47619,0.47619 -0.88982,1.02451 -1.42857,1.42857 -0.42592,0.31944 -1.00265,0.39485 -1.42857,0.71429 -0.53875,0.40406 -0.82624,1.1274 -1.42857,1.42857 -0.87806,0.43902 -1.9791,0.27526 -2.85715,0.71428 -0.60234,0.30117 -0.88982,1.02451 -1.42857,1.42857 -0.42592,0.31944 -0.97204,0.44037 -1.42857,0.71429 -0.73613,0.44168 -1.40673,0.98689 -2.14286,1.42857 -0.0463,0.0278 -2.83844,1.41455 -2.85714,1.42857 -0.53875,0.40406 -0.88982,1.02451 -1.42857,1.42857 -0.42592,0.31944 -0.9771,0.43212 -1.42857,0.71429 -1.45596,0.90997 -2.82976,1.94717 -4.28572,2.85714 -0.0489,0.0306 -2.83247,1.41007 -2.85714,1.42857 -0.53875,0.40406 -0.85111,1.0821 -1.42857,1.42858 -0.64563,0.38737 -1.44379,0.43465 -2.14286,0.71428 -0.49432,0.19773 -0.95238,0.47619 -1.42857,0.71429 -1.42857,0.71428 -2.85714,1.42857 -4.28571,2.14285 -0.47619,0.2381 -0.93426,0.51656 -1.42858,0.71429 -0.69907,0.27963 -1.4189,0.50744 -2.14285,0.71429 -1.50061,1.44872 -3.36668,0.30595 -5,0.71428 -1.2439,0.31098 -2.32753,1.1176 -3.57143,1.42857 -0.69296,0.17324 -1.43829,-0.11743 -2.14286,0 -1.32397,0.22066 -2.40561,0.84566 -3.57143,1.42857 -0.47619,0.2381 -0.95238,0.47619 -1.42857,0.71429 -0.47619,0.23809 -0.98559,0.41896 -1.42857,0.71429 -0.28017,0.18677 -0.47619,0.47619 -0.71429,0.71428 -0.23809,0.2381 -0.47619,0.47619 -0.71428,0.71429 -0.2381,0.23809 -0.5637,0.41311 -0.71429,0.71428 -0.10648,0.21296 0.10648,0.50133 0,0.71429 -0.15058,0.30117 -0.5637,0.41311 -0.71428,0.71428 -0.10648,0.21296 0.16836,0.54593 0,0.71429 -0.16836,0.16836 -0.54593,-0.16836 -0.71429,0 -0.16836,0.16836 0.10648,0.50133 0,0.71429 -0.15058,0.30116 -0.6078,0.39484 -0.71428,0.71428 -0.15059,0.45176 0.21295,1.00265 0,1.42857 -0.10648,0.21296 -0.50133,-0.10648 -0.71429,0 -0.30117,0.15059 -0.52751,0.43412 -0.71429,0.71429 -1.35316,-0.0813 -0.47619,1.66666 -0.71428,2.14286 -0.10253,0.20505 -1.3754,1.26906 -1.42857,1.42857 -0.15059,0.45175 0.11549,0.9666 0,1.42857 -0.12913,0.5165 -0.54593,0.92349 -0.71429,1.42857 -0.0753,0.22588 0,0.47619 0,0.71429 0,0.71428 0.17324,1.44989 0,2.14285 -0.0817,0.32667 -0.5637,0.41312 -0.71428,0.71429 -0.10648,0.21296 0.0753,0.48841 0,0.71428 -2.02346,4.04692 0.26619,-1.06479 -0.71429,2.85715 -0.12913,0.5165 -0.47619,0.95238 -0.71429,1.42857 -0.23809,0.47619 -0.47619,0.95238 -0.71428,1.42857 -0.2381,0.47619 -0.41897,0.98559 -0.71429,1.42857 -0.18677,0.28017 -0.5637,0.41312 -0.71428,0.71429 -0.33672,0.67343 -0.43466,1.44378 -0.71429,2.14285 -0.19773,0.49432 -0.54593,0.9235 -0.71428,1.42858 -0.0753,0.22587 0.13207,0.51617 0,0.71428 -0.37356,0.56033 -0.95239,0.95238 -1.42858,1.42857 -0.23809,0.2381 -0.5275,0.43412 -0.71428,0.71429 -0.29532,0.44298 -0.47619,0.95238 -0.71429,1.42857 -0.23809,0.47619 -0.51656,0.93425 -0.71428,1.42857 -0.27963,0.69907 -0.32691,1.49723 -0.71429,2.14286 -0.34648,0.57746 -1.08209,0.8511 -1.42857,1.42857 -0.38738,0.64563 -0.37757,1.46942 -0.71429,2.14286 -0.38391,0.76783 -0.98689,1.40673 -1.42857,2.14285 -0.27391,0.45653 -0.44037,0.97205 -0.71428,1.42858 -0.88336,1.47225 -1.97379,2.81346 -2.85715,4.28571 -0.27391,0.45653 -0.44037,0.97204 -0.71428,1.42857 -0.44168,0.73613 -0.95238,1.42857 -1.42857,2.14286 -0.47619,0.71428 -0.8923,1.47251 -1.42857,2.14286 -0.4207,0.52586 -1.0821,0.8511 -1.42858,1.42857 -3.16863,5.28105 2.19223,-1.13314 -2.14285,4.28571 -0.42069,0.52587 -1.02451,0.88982 -1.42857,1.42857 -0.97353,1.29803 -0.45505,1.55912 -1.42858,2.85715 -0.40406,0.53874 -1.1274,0.82623 -1.42857,1.42857 -0.21296,0.42591 0.21296,1.00265 0,1.42857 -0.30117,0.60234 -1.02451,0.88982 -1.42857,1.42857 -0.0267,0.0355 -1.39326,2.80418 -1.42857,2.85714 -0.18678,0.28017 -0.52751,0.43412 -0.71429,0.71429 -0.29532,0.44298 -0.47619,0.95238 -0.71428,1.42857 -0.71429,1.42857 -1.42857,2.85714 -2.14286,4.28571 -0.23809,0.47619 -0.41896,0.98559 -0.71428,1.42858 -0.18678,0.28016 -0.52751,0.43412 -0.71429,0.71428 -0.59064,0.88596 -0.83793,1.97118 -1.42857,2.85714 -0.18678,0.28017 -0.52751,0.43412 -0.71429,0.71429 -0.0353,0.053 -1.40192,2.82161 -1.42857,2.85714 -0.40406,0.53875 -1.05502,0.86824 -1.42857,1.42857 -0.13207,0.19811 0.10648,0.50133 0,0.71429 -0.38392,0.76783 -0.98689,1.40673 -1.42857,2.14286 -0.27392,0.45652 -0.41897,0.98559 -0.71429,1.42857 -0.18677,0.28016 -0.51225,0.44491 -0.71428,0.71428 -0.51508,0.68678 -0.82155,1.53584 -1.42857,2.14286 -3.80953,3.80953 0.71428,-2.61905 -2.14286,2.14286 0.0698,1.57971 -1.4825,1.86661 -2.14286,2.85714 -3.3237,4.98555 3.16954,-3.51177 -2.14286,3.57143 -0.20203,0.26937 -0.5275,0.43412 -0.71428,0.71429 -0.29532,0.44298 -0.41897,0.98559 -0.71429,1.42857 -0.18677,0.28016 -0.52751,0.43412 -0.71428,0.71428 -0.29532,0.44298 -0.47619,0.95238 -0.71429,1.42857 -0.23809,0.47619 -0.33782,1.05211 -0.71428,1.42858 -0.37647,0.37646 -1.05211,0.33782 -1.42858,0.71428 -0.37646,0.37646 -0.47619,0.95238 -0.71428,1.42857 -0.2381,0.47619 -0.41897,0.98559 -0.71429,1.42857 -0.18677,0.28017 -0.47619,0.47619 -0.71428,0.71429 -0.47619,0.47619 -1.02451,0.88982 -1.42857,1.42857 -1.75466,0.25469 -0.29664,1.51639 -0.71429,2.14286 -0.37355,0.56033 -0.95238,0.95238 -1.42857,1.42857 -0.2381,0.2381 -0.52751,0.43412 -0.71429,0.71429 -0.29532,0.44298 -0.41896,0.98559 -0.71428,1.42857 -0.18678,0.28016 -0.47619,0.47619 -0.71429,0.71428 -0.23809,0.2381 -0.6078,0.39485 -0.71428,0.71429 -0.15059,0.45175 0.21295,1.00265 0,1.42857 -0.30117,0.60234 -0.95239,0.95238 -1.42858,1.42857 -0.23809,0.2381 -0.47619,0.47619 -0.71428,0.71429 -0.2381,0.23809 -0.47619,0.47619 -0.71429,0.71428 -0.47619,0.47619 -1.02451,0.88983 -1.42857,1.42857 -0.31944,0.42592 -0.41896,0.98559 -0.71428,1.42858 -0.6551,0.98264 -1.10195,0.73462 -2.14286,1.42857 -0.28017,0.18677 -0.47619,0.47619 -0.71429,0.71428 -0.23809,0.2381 -0.5637,0.41312 -0.71428,0.71429 -0.10648,0.21296 0.10648,0.50133 0,0.71428 -0.15059,0.30117 -0.5637,0.41312 -0.71429,0.71429 -0.10648,0.21296 0.10648,0.50133 0,0.71429 -0.15058,0.30116 -0.5637,0.41311 -0.71428,0.71428 -0.10648,0.21296 0,0.47619 0,0.71429 0,0.23809 0,0.47619 0,0.71428 0,0.2381 -0.16836,0.54593 0,0.71429 0.16835,0.16836 0.47619,0 0.71428,0 0.2381,0 0.48841,-0.0753 0.71429,0 0.50507,0.16836 0.91207,0.58516 1.42857,0.71428 0.46197,0.1155 0.95238,0 1.42857,0 0.47619,0 0.95238,0 1.42857,0 0.71429,0 1.44244,-0.14008 2.14286,0 0.52206,0.10442 0.91207,0.58516 1.42857,0.71429 0.46197,0.11549 0.95238,0 1.42857,0 0.95238,0.2381 1.91322,0.44459 2.85714,0.71429 1.2915,-0.065 2.42858,1.04761 3.57143,1.42857 4.06384,1.35461 1.56056,0.0528 5,1.42857 0.49432,0.19773 1.00266,0.39485 1.42857,0.71428 0.53875,0.40407 0.95239,0.95239 1.42858,1.42858 0.23809,0.23809 0.41311,0.5637 0.71428,0.71428 0.21296,0.10648 0.54593,-0.16836 0.71429,0 0.16836,0.16836 -0.10648,0.50133 0,0.71429 0.15058,0.30117 0.5637,0.41311 0.71428,0.71428 0.10648,0.21296 0,0.47619 0,0.71429 0,0.23809 0,0.47619 0,0.71428 0,0.47619 0,0.95239 0,1.42858 0,0.23809 0.10648,0.50132 0,0.71428 -0.15058,0.30117 -0.6078,0.39485 -0.71428,0.71429 -0.15059,0.45175 0,0.95238 0,1.42857 0,1.19047 0,2.38095 0,3.57143 0,0.23809 0.10648,0.50132 0,0.71428 -0.15059,0.30117 -0.60781,0.39485 -0.71429,0.71429 -0.15058,0.45175 0,0.95238 0,1.42857 0,0.2381 0,0.47619 0,0.71429 0,0.23809 0,0.47619 0,0.71428 0,0.2381 -0.10648,0.50133 0,0.71429 0.15059,0.30117 0.5637,0.41311 0.71429,0.71428 0.10648,0.21296 0,0.47619 0,0.71429 0,0.47619 -0.15059,0.97682 0,1.42857 0.10648,0.31944 0.5637,0.41312 0.71428,0.71429 0.10648,0.21295 0,0.47619 0,0.71428 0,0.2381 0,0.47619 0,0.71429 0,0.23809 -0.10648,0.50132 0,0.71428 0.15059,0.30117 0.5637,0.41312 0.71429,0.71429 0.10648,0.21296 -0.10648,0.50133 0,0.71428 0.15058,0.30117 0.5637,0.41312 0.71428,0.71429 0.10648,0.21296 -0.10648,0.50133 0,0.71429 0.15059,0.30116 0.47619,0.47619 0.71429,0.71428 0.2381,0.2381 0.47619,0.47619 0.71429,0.71429 0.23809,0.23809 0.5637,0.41311 0.71428,0.71428 0.10648,0.21296 -0.10648,0.50133 0,0.71429 0.15059,0.30117 0.47619,0.47619 0.71429,0.71428 0.23809,0.2381 0.47619,0.47619 0.71428,0.71429 0.2381,0.2381 0.52751,0.43412 0.71429,0.71429 0.29532,0.44298 0.41896,0.98559 0.71428,1.42857 0.18678,0.28016 0.52751,0.43412 0.71429,0.71428 0.29532,0.44298 0.41897,0.98559 0.71429,1.42857 1.09398,1.64098 0.40799,-0.30628 2.14285,1.42858 0.37646,0.37646 0.33783,1.05211 0.71429,1.42857 0.37646,0.37646 0.95238,0.47619 1.42857,0.71428 0.47619,0.2381 0.98559,0.41897 1.42857,0.71429 0.28017,0.18678 0.43412,0.52751 0.71429,0.71428 0.88596,0.59065 1.97118,0.83793 2.85714,1.42858 0.56033,0.37355 0.86824,1.05501 1.42857,1.42857 0.44298,0.29532 0.98559,0.41896 1.42857,0.71428 0.28017,0.18678 0.47619,0.47619 0.71429,0.71429 0.23809,0.23809 0.47619,0.47619 0.71428,0.71428 0.47619,0.47619 0.95239,0.95239 1.42858,1.42858 0.23809,0.23809 0.43412,0.5275 0.71428,0.71428 0.44298,0.29532 0.95238,0.47619 1.42857,0.71429 0.47619,0.23809 0.95238,0.47619 1.42857,0.71428 1.42858,0.71429 2.85715,1.42857 4.28572,2.14286 0.47619,0.2381 0.98559,0.41896 1.42857,0.71429 0.28017,0.18677 0.39485,0.6078 0.71429,0.71428 1.69742,0.56581 1.2973,-0.84555 2.85714,0.71429 0.16836,0.16836 -0.16836,0.54592 0,0.71428 0.37646,0.37646 0.98559,0.41897 1.42857,0.71429 0.28017,0.18678 0.41312,0.5637 0.71429,0.71428 0.21295,0.10648 0.54592,-0.16835 0.71428,0 0.16836,0.16836 -0.10648,0.50133 0,0.71429 0.15059,0.30117 0.47619,0.47619 0.71429,0.71429 0.23809,0.23809 0.47619,0.47619 0.71428,0.71428 0.2381,0.2381 0.5637,0.41312 0.71429,0.71429 0.33672,0.67343 0.37757,1.46942 0.71428,2.14285 0.15059,0.30117 0.60781,0.39485 0.71429,0.71429 1.60526,4.81578 -3.42482,-3.9925 0.71429,4.28571 0.30117,0.60234 1.05501,0.86824 1.42857,1.42858 0.13207,0.1981 -0.0578,0.4833 0,0.71428 0.18261,0.73044 0.37757,1.46942 0.71428,2.14286 0.15059,0.30117 0.52751,0.43412 0.71429,0.71428 0.29532,0.44299 0.47619,0.95239 0.71428,1.42858 0.2381,0.47619 0.60988,0.90651 0.71429,1.42857 0.14008,0.70041 -0.14008,1.44244 0,2.14285 0.57487,2.87438 0.52123,0.32819 1.42857,2.14286 0.33672,0.67344 0.43466,1.44379 0.71429,2.14286 0.19772,0.49432 0.58516,0.91207 0.71428,1.42857 0.1155,0.46197 -0.0934,0.96163 0,1.42857 1.20281,6.01406 0.011,0.0221 1.42857,2.85714 0.10648,0.21296 0,0.47619 0,0.71429 0,0.47619 0,0.95238 0,1.42857"
       id="path4164"
       inkscape:connector-curvature="0"
       inkscape:export-filename="C:\Users\Darsh\Desktop\GGJ18\PortalPong\Assets\Sprites\elctricity.png"
       inkscape:export-xdpi="90"
       inkscape:export-ydpi="90" />
    <path
       style="fill:none;fill-rule:evenodd;stroke:#ffffff;stroke-width:2;stroke-linecap:butt;stroke-linejoin:miter;stroke-opacity:1;stroke-miterlimit:4;stroke-dasharray:none"
       d="m 577.14286,297.3622 c -0.95238,1.19048 -2.01148,2.30293 -2.85715,3.57143 -0.13207,0.19811 0.10648,0.50133 0,0.71429 -0.0329,0.0658 -1.36421,1.33203 -1.42857,1.42857 -0.29532,0.44298 -0.41896,0.98559 -0.71428,1.42857 -0.0644,0.0965 -1.39565,1.36273 -1.42857,1.42857 -0.10648,0.21296 0.10648,0.50133 0,0.71429 -0.15059,0.30117 -0.5637,0.41311 -0.71429,0.71428 -0.21296,0.42592 0.21296,1.00266 0,1.42858 -0.15058,0.30116 -0.5637,0.41311 -0.71429,0.71428 -0.10647,0.21296 0.10648,0.50133 0,0.71429 -0.10252,0.20505 -1.3754,1.26906 -1.42857,1.42857 -0.15058,0.45175 0,0.95238 0,1.42857 0,0.23809 0,0.47619 0,0.71429 0,0.23809 -0.10648,0.50132 0,0.71428 0.15059,0.30117 0.5637,0.41312 0.71429,0.71429 0.10648,0.21296 -0.16836,0.54592 0,0.71428 0.16836,0.16836 0.54593,-0.16836 0.71428,0 0.16836,0.16836 0,0.47619 0,0.71429 0,0.23809 -0.0753,0.48841 0,0.71428 0.16836,0.50508 0.41897,0.98559 0.71429,1.42858 0.37356,0.56033 1.05502,0.86823 1.42857,1.42857 1.57369,0.35971 0.37757,1.46942 0.71429,2.14285 0.15058,0.30117 0.63262,0.38763 0.71428,0.71429 0,5.06623 -0.50507,0.41842 0.71429,2.85714 0.10648,0.21296 0,0.47619 0,0.71429 0,0.71428 0,1.42857 0,2.14286 0,0.47619 -0.11549,0.96659 0,1.42857 0.12912,0.5165 0.58516,0.91207 0.71428,1.42857 0.0431,0.17226 -0.0437,2.72597 0,2.85714 0.10648,0.31944 0.60781,0.39485 0.71429,0.71429 0.15059,0.45175 0,0.95238 0,1.42857 0,0.23809 -0.10648,0.50133 0,0.71428 1.6345,3.26901 -0.29605,-3.03101 1.42857,2.14286 0.15059,0.45176 -0.15058,0.97682 0,1.42857 0.16836,0.50508 0.54593,0.9235 0.71429,1.42857 0.0513,0.15379 -0.0532,1.32223 0,1.42858 0.15058,0.30116 0.5637,0.41311 0.71428,0.71428 0.10648,0.21296 0,0.47619 0,0.71429 0,0.23809 0.10648,0.50132 0,0.71428 -0.15058,0.30117 -0.5637,0.41312 -0.71428,0.71429 -0.10648,0.21296 0.10648,0.50133 0,0.71428 -0.15059,0.30117 -0.5637,0.41312 -0.71429,0.71429 -0.38114,0.76228 0.38114,0.66629 0,1.42857 -0.15058,0.30117 -0.5637,0.41312 -0.71428,0.71429 -0.10648,0.21296 0,0.47619 0,0.71428 0,0.2381 0,0.47619 0,0.71429 0,0.71428 0,1.42857 0,2.14286 0,1.90476 0,3.80952 0,5.71428 0,0.2381 -0.16836,0.54593 0,0.71429 0.16836,0.16836 0.6078,-0.21296 0.71428,0 0.21296,0.42591 0,0.95238 0,1.42857 0,0.23809 0,0.47619 0,0.71428 0,0.2381 -0.16836,0.54593 0,0.71429 0.16836,0.16836 0.54593,-0.16836 0.71429,0 0.16629,0.16629 -0.14899,1.13061 0,1.42857 0.15058,0.30117 0.5637,0.41312 0.71428,0.71429 0.10648,0.21296 0,0.47619 0,0.71428 0,0.71429 0,1.42857 0,2.14286 0,0.95238 0,1.90476 0,2.85714 0,0.47619 0,0.95238 0,1.42857 0,0.2381 0.10648,0.50133 0,0.71429 -0.15058,0.30117 -0.5637,0.41312 -0.71428,0.71429 -0.21296,0.42591 0.21296,1.00265 0,1.42857 -0.15059,0.30117 -0.60781,0.39484 -0.71429,0.71428 -0.15058,0.45176 0.1155,0.9666 0,1.42857 -0.12912,0.51651 -0.54592,0.9235 -0.71428,1.42858 -0.0753,0.22587 0.10648,0.50132 0,0.71428 -0.15059,0.30117 -0.52751,0.43412 -0.71429,0.71429 -0.82076,1.23114 -0.71429,1.0797 -0.71429,2.14285 0,1.67513 0.16836,-0.33671 -0.71428,1.42858 -0.10648,0.21295 0,0.47619 0,0.71428 0,0.2381 0,0.47619 0,0.71429 0,0.47619 0,0.95238 0,1.42857 0,0.23809 0.23809,0.71428 0,0.71428 -0.2381,0 -0.16836,-0.54592 0,-0.71428 0.95238,-0.95238 0.71428,1.19047 0.71428,-0.71429"
       id="path4166"
       inkscape:connector-curvature="0"
       inkscape:export-filename="C:\Users\Darsh\Desktop\GGJ18\PortalPong\Assets\Sprites\elctricity.png"
       inkscape:export-xdpi="90"
       inkscape:export-ydpi="90" />
    <path
       style="fill:none;fill-rule:evenodd;stroke:#ffffff;stroke-width:2;stroke-linecap:butt;stroke-linejoin:miter;stroke-opacity:1;stroke-miterlimit:4;stroke-dasharray:none"
       d="m 615.71429,342.3622 c 1.42857,-0.23809 2.84862,-0.53465 4.28571,-0.71428 0.47251,-0.0591 0.95238,0 1.42857,0 0.47619,0 0.95238,0 1.42857,0 1.19048,0 2.38096,0 3.57143,0 0.47619,0 0.95238,0 1.42857,0 0.47619,0 0.97682,-0.15059 1.42857,0 0.31944,0.10648 0.41312,0.5637 0.71429,0.71428 0.42592,0.21296 1.00265,-0.21295 1.42857,0 0.30117,0.15059 0.41312,0.56371 0.71429,0.71429 0.21296,0.10648 0.50132,-0.10648 0.71428,0 2.83508,1.41754 -3.15691,0.22576 2.85715,1.42857 0.46694,0.0934 0.9666,-0.11549 1.42857,0 0.5165,0.12913 0.91207,0.58516 1.42857,0.71429 0.46197,0.11549 0.96163,-0.0934 1.42857,0 0.7383,0.14766 1.40456,0.56662 2.14286,0.71428 0.93388,0.18678 1.92325,-0.18677 2.85714,0 3.71586,0.74317 0.71429,0.47619 3.57143,1.42857 0.15379,0.0513 1.32223,-0.0532 1.42857,0 0.30117,0.15059 0.37757,0.71429 0.71429,0.71429 0.33671,0 0.41311,-0.5637 0.71428,-0.71429 0.21296,-0.10648 0.47619,0 0.71429,0 0.95238,0 1.90476,0 2.85714,0 1.19048,0 2.38095,0 3.57143,0 0.47619,0 0.96163,-0.0934 1.42857,0 0.7383,0.14766 1.40018,0.59051 2.14286,0.71429 0.70456,0.11743 1.44244,-0.14008 2.14285,0 0.52206,0.10441 0.93426,0.51656 1.42858,0.71429 1.45198,0.58079 2.31508,0.591 3.57142,1.42857 0.28017,0.18677 0.44492,0.51225 0.71429,0.71428 0.68677,0.51508 1.45609,0.9135 2.14286,1.42857 0.26937,0.20203 0.47619,0.47619 0.71428,0.71429 0.71429,0.71429 1.42857,1.42857 2.14286,2.14286 0.71429,0.71428 1.42857,1.42857 2.14286,2.14285 0.23809,0.2381 0.43412,0.52751 0.71428,0.71429 0.44298,0.29532 1.00266,0.39485 1.42858,0.71429 3.08949,3.08949 -0.18923,0.11194 2.85714,2.14285 0.0965,0.0644 1.36273,1.39565 1.42857,1.42857 0.21296,0.10648 0.54593,-0.16835 0.71429,0 0.16629,0.16629 -0.14899,1.13061 0,1.42858 0.15058,0.30116 0.47619,0.47619 0.71428,0.71428 0.2381,0.2381 0.47619,0.47619 0.71429,0.71429 0.47619,0.47619 0.95238,0.95238 1.42857,1.42857 0.23809,0.23809 0.43412,0.52751 0.71428,0.71428 0.44298,0.29532 0.98559,0.41897 1.42858,0.71429 0.28016,0.18678 0.39484,0.60781 0.71428,0.71429 0.45175,0.15058 0.98644,-0.17686 1.42857,0 0.79707,0.31882 1.37503,1.04465 2.14286,1.42857 0.21296,0.10648 0.48841,-0.0753 0.71429,0 0.50507,0.16836 0.95238,0.47619 1.42857,0.71428 0.47619,0.2381 0.95238,0.47619 1.42857,0.71429 0.47619,0.23809 0.98559,0.41896 1.42857,0.71428 0.28017,0.18678 0.43412,0.52751 0.71429,0.71429 0.44298,0.29532 0.95238,0.47619 1.42857,0.71429 0.47619,0.23809 1.05211,0.33782 1.42857,0.71428 0.16836,0.16836 -0.16836,0.54593 0,0.71429 0.47619,0.23809 0.95238,0.47619 1.42857,0.71428 0,0.2381 -0.16836,0.54593 0,0.71429 0.16836,0.16836 0.71429,-0.2381 0.71429,0 0,0.23809 -0.71429,0.23809 -0.71429,0 0,-0.2381 0.54593,-0.16836 0.71429,0 0.16835,0.16836 0,0.47619 0,0.71428 0,0.2381 0,0.47619 0,0.71429"
       id="path4168"
       inkscape:connector-curvature="0"
       inkscape:export-filename="C:\Users\Darsh\Desktop\GGJ18\PortalPong\Assets\Sprites\elctricity.png"
       inkscape:export-xdpi="90"
       inkscape:export-ydpi="90" />
    <path
       style="fill:none;fill-rule:evenodd;stroke:#ffffff;stroke-width:1px;stroke-linecap:butt;stroke-linejoin:miter;stroke-opacity:1"
       d="m 500,420.93363 c 6.39838,-3.02147 5.50009,4.17862 8.57143,5.71429 2.88107,1.44053 4.64636,0.98477 7.14286,2.85714 1.07749,0.80812 1.90476,1.90476 2.85714,2.85714 3.33333,3.33334 6.66667,6.66667 10,10 0.95238,0.95239 1.77965,2.04903 2.85714,2.85715 0.85184,0.63887 2.00531,0.78969 2.85714,1.42857 0.15669,0.11751 5.59596,5.6354 5.71429,5.71428 0.39621,0.26415 1.00265,-0.21295 1.42857,0 0.60234,0.30117 1.1274,0.82624 1.42857,1.42858 0.42688,0.85375 -0.94041,2.85714 1.42857,2.85714 0.4762,0 -0.47619,-1.42857 0,-1.42857 0.4762,0 0,0.95238 0,1.42857 0,0.47619 0.4762,1.42857 0,1.42857 -0.47619,0 -0.47619,-1.42857 0,-1.42857 0.14428,0 -0.14934,3.98703 0,4.28571 0.30117,0.60234 1.12741,0.82624 1.42858,1.42857 0.21295,0.42592 -0.21296,1.00266 0,1.42858 0.30117,0.60233 0.95238,0.95238 1.42857,1.42857 0.95238,0.95238 1.90476,1.90476 2.85714,2.85714 0.47619,0.47619 0.95238,0.95238 1.42857,1.42857 0.47619,0.47619 0.86824,1.05502 1.42857,1.42857 0.88597,0.59064 1.97118,0.83793 2.85715,1.42857 0.56033,0.37356 0.86824,1.05502 1.42857,1.42858 0.88596,0.59064 1.97118,0.83793 2.85714,1.42857 0.56033,0.37355 0.86824,1.05501 1.42857,1.42857 0.88596,0.59064 1.97118,0.83793 2.85714,1.42857 0.56034,0.37355 0.95239,0.95238 1.42858,1.42857 0.47619,0.47619 1.05501,0.86824 1.42857,1.42857 0.59064,0.88597 0.78969,2.00531 1.42857,2.85715 0.80812,1.07749 2.11003,1.73648 2.85714,2.85714 0.26414,0.39621 -0.26414,1.03236 0,1.42857 0.74711,1.12066 2.11004,1.73648 2.85714,2.85714 0.26415,0.39622 -0.15058,0.97682 0,1.42857 0.33672,1.01016 0.95239,1.90477 1.42858,2.85715 0.47619,0.95238 0.67564,2.10422 1.42857,2.85714 0.33671,0.33672 1.21561,-0.42592 1.42857,0 0.42592,0.85184 -0.42592,2.00531 0,2.85714 0.21296,0.42592 1.21561,-0.42591 1.42857,0 0.42592,0.85184 -0.30117,1.95364 0,2.85715 0.13947,0.41841 2.5782,1.70751 1.42857,2.85714 -0.33672,0.33672 -1.42857,-0.47619 -1.42857,0 0,0.67343 0.75514,1.42857 1.42857,1.42857 0.47619,0 0,-0.95238 0,-1.42857"
       id="path4170"
       inkscape:connector-curvature="0"
       inkscape:export-filename="C:\Users\Darsh\Desktop\GGJ18\PortalPong\Assets\Sprites\elctricity.png"
       inkscape:export-xdpi="90"
       inkscape:export-ydpi="90" />
    <path
       style="fill:none;fill-rule:evenodd;stroke:#ffffff;stroke-width:2;stroke-linecap:butt;stroke-linejoin:miter;stroke-opacity:1;stroke-miterlimit:4;stroke-dasharray:none"
       d="m 495.71429,550.93363 c 7.09735,0.5208 0.0817,5.12256 1.42857,7.14286 0.74711,1.12066 2.2548,1.65247 2.85714,2.85714 0.42592,0.85184 -0.52829,2.06472 0,2.85715 0.59064,0.88596 2.2665,0.5426 2.85714,1.42857 0.52829,0.79243 -0.42591,2.0053 0,2.85714 0.60234,1.20468 1.90477,1.90476 2.85715,2.85714 0.47619,0.47619 0.95238,0.95238 1.42857,1.42857 0.47619,0.47619 1.21561,0.7897 1.42857,1.42858 0.30117,0.9035 0,1.90476 0,2.85714 0,0.47619 0,0.95238 0,1.42857 0,0.47619 0.15058,0.97682 0,1.42857 -0.33672,1.01015 -0.83793,1.97118 -1.42857,2.85714 -0.37356,0.56034 -0.82624,1.12741 -1.42857,1.42858 -0.42592,0.21295 -1.03236,-0.26415 -1.42858,0 -1.12066,0.7471 -1.65246,2.2548 -2.85714,2.85714 -0.85183,0.42592 -1.90476,0 -2.85714,0 -0.95238,0 -1.92326,-0.18678 -2.85714,0 -1.47661,0.29532 -2.88757,0.86931 -4.28572,1.42857 -0.98863,0.39545 -1.97118,0.83793 -2.85714,1.42857 -1.12066,0.74711 -1.73648,2.11004 -2.85714,2.85714 -0.88597,0.59065 -2.10422,0.67565 -2.85715,1.42858 -0.33671,0.33671 0,0.95238 0,1.42857 0,0.47619 0.15059,0.97681 0,1.42857 -0.33671,1.01015 -1.09185,1.84699 -1.42857,2.85714 -0.15058,0.45176 0,0.95238 0,1.42857 0,0.95238 -0.30117,1.95364 0,2.85715 0.21296,0.63887 1.1274,0.82623 1.42857,1.42857 0.10634,0.21268 -0.10252,2.54956 0,2.85714 3.44925,10.34774 -0.41186,-2.2523 2.85715,4.28571 0.21295,0.42592 -0.33672,1.09186 0,1.42858 0.75292,0.75292 2.10422,0.67564 2.85714,1.42857 0.75292,0.75292 0.67565,2.10422 1.42857,2.85714 0.33672,0.33672 0.97682,-0.15058 1.42857,0 1.01015,0.33672 2.10422,0.67565 2.85714,1.42857 0.87511,0.87511 1.21617,3.73872 2.85715,4.28572 4.33523,1.44507 1.99813,-2.71709 5.71428,2.85714 0.26415,0.39621 -0.21296,1.00265 0,1.42857 0.30117,0.60234 1.05502,0.86824 1.42857,1.42857 0.59065,0.88596 0.83793,1.97118 1.42858,2.85714 0.12872,0.19308 2.7913,2.72546 2.85714,2.85715 0.21296,0.42592 -0.21296,1.00265 0,1.42857 0.30117,0.60234 1.1274,0.82623 1.42857,1.42857 0.21296,0.42592 -0.21296,1.00265 0,1.42857 0.30117,0.60234 1.1274,0.82623 1.42857,1.42857 0.21296,0.42592 -0.21296,1.00266 0,1.42857 0.30117,0.60234 1.1274,0.82624 1.42857,1.42858 0.21296,0.42591 -0.33671,1.09185 0,1.42857 0.33672,0.33671 1.09186,-0.33672 1.42857,0 0.33672,0.33671 -0.21295,1.00265 0,1.42857 2.97269,5.94537 -0.0986,-1.52719 2.85715,1.42857 0.33671,0.33672 -0.33672,1.09185 0,1.42857 0.33671,0.33672 1.09185,-0.33672 1.42857,0 0.33672,0.33672 -0.33672,1.09186 0,1.42857 0.33672,0.33672 1.00265,-0.21296 1.42857,0 0.60234,0.30117 0.82623,1.12741 1.42857,1.42857 0.42592,0.21296 1.00266,-0.21295 1.42857,0 0.60234,0.30117 0.82624,1.12741 1.42857,1.42858 0.42592,0.21295 1.00266,-0.21296 1.42858,0 0.60233,0.30117 0.82623,1.1274 1.42857,1.42857 0.42592,0.21296 1.00265,-0.21296 1.42857,0 1.20468,0.60234 1.65246,2.2548 2.85714,2.85714 0.42592,0.21296 1.09186,-0.33672 1.42857,0 0.33672,0.33672 -0.33671,1.09185 0,1.42857 0.33672,0.33672 1.00266,-0.21296 1.42857,0 0.60234,0.30117 0.82624,1.1274 1.42858,1.42857 0.42591,0.21296 1.00265,-0.21296 1.42857,0 1.20467,0.60234 1.65246,2.25481 2.85714,2.85715 0.42592,0.21295 1.00265,-0.21296 1.42857,0 1.20468,0.60233 1.65247,2.2548 2.85714,2.85714 0.42592,0.21296 1.09186,-0.33672 1.42858,0 2.95576,2.95576 -4.5168,-0.11554 1.42857,2.85714 0.42592,0.21296 1.00265,-0.21296 1.42857,0 0.4101,0.20505 2.53812,2.7508 2.85714,2.85714 0.90351,0.30117 2.00531,-0.42591 2.85714,0 0.42592,0.21296 -0.33671,1.09186 0,1.42858 1.50585,1.50584 4.20844,1.35129 5.71429,2.85714 0.33672,0.33672 -0.33672,1.09185 0,1.42857 2.95577,2.95577 -0.11554,-4.5168 2.85714,1.42857 0.21296,0.42592 -0.33671,1.09186 0,1.42857 0.33672,0.33672 1.00266,-0.21296 1.42857,0 3.15865,1.57933 0.44332,0.88664 1.42858,2.85715 0.60233,1.20467 2.2548,1.65246 2.85714,2.85714 0.42592,0.85183 -0.42592,2.00531 0,2.85714 0.60234,1.20468 2.2548,1.65247 2.85714,2.85714 0.21296,0.42592 0,0.95239 0,1.42858 0,0.47619 0.33672,1.09185 0,1.42857 -0.33672,0.33671 -1.42857,0.47619 -1.42857,0 0,-0.47619 0.95238,0 1.42857,0"
       id="path4174"
       inkscape:connector-curvature="0"
       inkscape:export-filename="C:\Users\Darsh\Desktop\GGJ18\PortalPong\Assets\Sprites\elctricity.png"
       inkscape:export-xdpi="90"
       inkscape:export-ydpi="90" />
    <path
       style="fill:none;fill-rule:evenodd;stroke:#ffffff;stroke-width:2;stroke-linecap:butt;stroke-linejoin:miter;stroke-opacity:1;stroke-miterlimit:4;stroke-dasharray:none"
       d="m 408.57143,338.07649 c -5.22159,5.22159 -4.5608,5.30791 -10,8.57143 -0.91305,0.54783 -1.90476,0.95238 -2.85714,1.42857 -0.95239,0.47619 -1.90477,0.95238 -2.85715,1.42857 -1.90476,0.95238 -3.86528,1.80057 -5.71428,2.85714 -3.91297,2.23599 -3.53067,2.84084 -7.14286,4.28572 -1.39814,0.55926 -2.99446,0.65382 -4.28571,1.42857 -1.15494,0.69296 -1.73648,2.11003 -2.85715,2.85714 -0.39621,0.26415 -1.00265,-0.21296 -1.42857,0 -0.60234,0.30117 -0.82623,1.12741 -1.42857,1.42857 -0.42592,0.21296 -1.09185,-0.33671 -1.42857,0 -0.33672,0.33672 0,0.95239 0,1.42858 0,0.47619 0,0.95238 0,1.42857 0,0.47619 -0.21296,1.00265 0,1.42857 0.30117,0.60234 1.1274,0.82623 1.42857,1.42857 0.21296,0.42592 -0.15058,0.97682 0,1.42857 0.33672,1.01015 1.17032,1.82414 1.42857,2.85714 0.23099,0.92395 0,1.90477 0,2.85715 0,0.47619 0,0.95238 0,1.42857 0,0.47619 0.15059,0.97682 0,1.42857 -0.33672,1.01015 -1.17032,1.82414 -1.42857,2.85714 -0.23099,0.92395 0,1.90476 0,2.85715 0,0.47619 0,0.95238 0,1.42857 0,1.90476 0,3.80952 0,5.71428 0,0.95238 -0.23099,1.9332 0,2.85715 0.25825,1.033 1.09185,1.84699 1.42857,2.85714 0.10253,0.30758 -0.10634,2.64446 0,2.85714 0.60234,1.20468 2.25481,1.65247 2.85714,2.85714 0.21296,0.42592 0,0.95239 0,1.42858 0,0.95238 0,1.90476 0,2.85714 0,0.95238 0,1.90476 0,2.85714 0,0.95238 0.23099,1.9332 0,2.85714 -0.57658,2.30633 -1.40497,2.83355 -2.85714,4.28572 -0.47619,0.47619 -1.1274,0.82623 -1.42857,1.42857 -0.67343,1.34687 -0.75514,2.93884 -1.42857,4.28571 -0.0658,0.13169 -2.72842,2.66407 -2.85714,2.85715 -0.59065,0.88596 -0.83793,1.97118 -1.42858,2.85714 -0.7471,1.12066 -2.11003,1.73648 -2.85714,2.85714 -0.59064,0.88597 -0.67565,2.10422 -1.42857,2.85715 -0.75292,0.75292 -2.2665,0.5426 -2.85714,1.42857 -1.42246,2.13368 -1.71033,4.84922 -2.85715,7.14285 -2.17825,4.35652 -1.13252,-2.61277 -2.85714,4.28572 -0.23098,0.92394 0.30117,1.95363 0,2.85714 -0.21296,0.63888 -1.21561,0.7897 -1.42857,1.42857 -0.30117,0.90351 0,1.90476 0,2.85715 0,0.47619 0,0.95238 0,1.42857 0,0.95238 0,1.90476 0,2.85714 0,0.47619 -0.21296,1.00265 0,1.42857 0.30117,0.60234 1.21561,0.7897 1.42857,1.42857 0.30117,0.90351 0,1.90476 0,2.85715 0,0.95238 0,1.90476 0,2.85714 0,0.47619 -0.33672,1.09185 0,1.42857 0.33672,0.33672 1.09186,-0.33672 1.42857,0 0.33672,0.33672 0,0.95238 0,1.42857 0,0.95238 0,1.90476 0,2.85714 0,0.47619 0.21296,1.00266 0,1.42858 -0.30117,0.60233 -1.05501,0.86824 -1.42857,1.42857 -0.47619,0.95238 -0.95238,1.90476 -1.42857,2.85714 0,0.47619 0.21296,1.00265 0,1.42857 -0.30117,0.60234 -1.1274,0.82623 -1.42857,1.42857 -0.10634,0.21268 0.10252,2.54957 0,2.85715 -0.33672,1.01015 -1.09186,1.84699 -1.42857,2.85714 -0.15059,0.45175 0,0.95238 0,1.42857 0,0.47619 0,0.95238 0,1.42857 0,1.42857 0,2.85714 0,4.28572 0,0.47619 0,0.95238 0,1.42857 0,0.47619 -0.21296,1.00265 0,1.42857 0.30117,0.60234 0.95238,0.95238 1.42857,1.42857 0.47619,0.47619 0.82623,1.1274 1.42857,1.42857 0.42592,0.21296 1.09185,-0.33672 1.42857,0 0.33672,0.33672 -0.33672,1.09186 0,1.42857 0.33672,0.33672 1.09186,0.33672 1.42857,0 0.33672,-0.33671 0,-0.95238 0,-1.42857"
       id="path4176"
       inkscape:connector-curvature="0"
       inkscape:export-filename="C:\Users\Darsh\Desktop\GGJ18\PortalPong\Assets\Sprites\elctricity.png"
       inkscape:export-xdpi="90"
       inkscape:export-ydpi="90" />
    <path
       style="fill:none;fill-rule:evenodd;stroke:#ffffff;stroke-width:2;stroke-linecap:butt;stroke-linejoin:miter;stroke-opacity:1;stroke-miterlimit:4;stroke-dasharray:none"
       d="m 164.28571,530.93363 c 19.01703,0 -2.8306,0.85184 8.57143,-1.42857 1.40083,-0.28016 2.88489,0.28017 4.28572,0 1.04411,-0.20882 1.82414,-1.17032 2.85714,-1.42857 0.92395,-0.23099 1.90476,0 2.85714,0 1.42857,0 2.85715,0 4.28572,0 1.42857,0 2.89979,-0.34648 4.28571,0 0.65333,0.16333 0.7897,1.21561 1.42857,1.42857 0.90351,0.30117 1.90476,0 2.85715,0 0.47619,0 1.09185,-0.33672 1.42857,0 0.33671,0.33672 0,0.95238 0,1.42857 0,2.85715 0,5.71429 0,8.57143 0,0.47619 -0.33672,1.09186 0,1.42857 0.33671,0.33672 1.09185,-0.33671 1.42857,0 1.24825,1.24825 -1.42857,2.97269 -1.42857,0 0,-0.47619 1.00265,-0.21296 1.42857,0 0.60234,0.30117 0.82623,1.12741 1.42857,1.42857 0.42592,0.21296 1.00265,-0.21295 1.42857,0 0.60234,0.30117 0.82623,1.12741 1.42857,1.42858 0.85184,0.42591 2.00531,-0.42592 2.85715,0 1.20467,0.60233 1.65246,2.2548 2.85714,2.85714 0.42592,0.21296 0.95238,0 1.42857,0 3.80952,0 -0.47619,-0.47619 1.42857,1.42857 0.33672,0.33672 1.09186,-0.33672 1.42857,0 0.33672,0.33672 -0.33671,1.09185 0,1.42857 0.33672,0.33672 1.09186,-0.33672 1.42857,0 0.67344,0.67344 -0.67343,2.18371 0,2.85714 2.95577,2.95577 -0.11554,-4.5168 2.85715,1.42858 0.21296,0.42591 -0.21296,1.00265 0,1.42857 0.60234,1.20467 2.2548,1.65246 2.85714,2.85714 0.21296,0.42592 0,0.95238 0,1.42857 0,0.47619 0.47619,1.42857 0,1.42857 -0.47619,0 -0.47619,-1.42857 0,-1.42857 0.67344,0 0.95238,0.95238 1.42857,1.42857 0.47619,0.47619 0.95238,0.95238 1.42857,1.42857 0.47619,0.47619 0.82624,1.12741 1.42857,1.42858 0.42592,0.21295 1.09186,-0.33672 1.42858,0 0.33671,0.33671 0.47619,1.42857 0,1.42857 -0.47619,0 -0.47619,-1.42857 0,-1.42857 0.47619,0 -0.21296,1.00265 0,1.42857 0.88264,1.76529 1.37926,1.42857 2.85714,1.42857"
       id="path4178"
       inkscape:connector-curvature="0"
       inkscape:export-filename="C:\Users\Darsh\Desktop\GGJ18\PortalPong\Assets\Sprites\elctricity.png"
       inkscape:export-xdpi="90"
       inkscape:export-ydpi="90" />
    <path
       style="fill:none;fill-rule:evenodd;stroke:#ffffff;stroke-width:2;stroke-linecap:butt;stroke-linejoin:miter;stroke-opacity:1;stroke-miterlimit:4;stroke-dasharray:none"
       d="m 150,522.3622 c -5.36711,-3.34448 -4.5087,3.40767 -7.14286,4.28572 -0.9035,0.30117 -1.95363,-0.30117 -2.85714,0 -0.63888,0.21296 -0.86824,1.05502 -1.42857,1.42857 -0.88596,0.59064 -1.84699,1.09185 -2.85714,1.42857 -0.45176,0.15059 -0.95239,0 -1.42858,0 -0.47619,0 -0.95238,0 -1.42857,0 -0.47619,0 -1.42857,0.47619 -1.42857,0 0,-0.47619 1.42857,-0.47619 1.42857,0 0,0.47619 -1.09185,-0.33672 -1.42857,0 -0.33258,0.33258 0.29797,2.26121 0,2.85714 -0.30117,0.60234 -0.95238,0.95239 -1.42857,1.42858 -0.47619,0.47619 -0.95238,0.95238 -1.42857,1.42857 -0.47619,0.47619 -1.1274,0.82623 -1.42857,1.42857 -0.21296,0.42592 0.33671,1.09185 0,1.42857 -0.33672,0.33672 -1.42857,0.47619 -1.42857,0 0,-0.47619 1.42857,-0.47619 1.42857,0 0,0.67344 -0.82624,1.1274 -1.42857,1.42857 -3.80953,0 0.47619,-0.47619 -1.42858,1.42857 -0.33671,0.33672 -1.09185,-0.33671 -1.42857,0 -2.95576,2.95577 4.5168,-0.11554 -1.42857,2.85715 -0.42592,0.21295 -1.09185,-0.33672 -1.42857,0 -0.33672,0.33671 0.33672,1.09185 0,1.42857 -0.33672,0.33671 -1.00265,-0.21296 -1.42857,0 -0.60234,0.30117 -0.95238,0.95238 -1.42857,1.42857 -0.47619,0.47619 -0.95238,0.95238 -1.42857,1.42857 -0.47619,0.47619 -0.82624,1.1274 -1.42858,1.42857 -0.85183,0.42592 -2.0053,-0.42592 -2.85714,0 -1.20468,0.60234 -1.65246,2.25481 -2.85714,2.85714 -0.59593,0.29797 -2.52456,-0.33258 -2.85714,0 -0.33672,0.33672 0.33671,1.09186 0,1.42858 -0.33672,0.33671 -1.09186,-0.33672 -1.42858,0 -0.33671,0.33671 0.33672,1.09185 0,1.42857 -0.33671,0.33671 -1.09185,-0.33672 -1.42857,0 -0.67343,0.67343 0.67344,2.18371 0,2.85714 -0.33671,0.33672 -1.09185,-0.33672 -1.42857,0 -0.33672,0.33672 0.21296,1.00265 0,1.42857 -0.30117,0.60234 -1.1274,0.82623 -1.42857,1.42857 -0.212959,0.42592 0.33672,1.09186 0,1.42857 -0.336717,0.33672 -1.091854,-0.33671 -1.428571,0 -0.336718,0.33672 0.336717,1.09186 0,1.42858 -0.336718,0.33671 -1.002654,-0.21296 -1.428572,0 -1.204677,0.60233 -1.652465,2.2548 -2.857143,2.85714 -1.34687,0.67343 -2.887571,0.86931 -4.285714,1.42857 -0.988637,0.39545 -1.824141,1.17032 -2.857143,1.42857 -0.923945,0.23099 -1.923256,-0.18678 -2.857143,0 -1.476604,0.29532 -2.824828,1.06335 -4.285714,1.42857 -0.461973,0.1155 -1.002654,-0.21296 -1.428571,0 -0.602339,0.30117 -0.789695,1.21562 -1.428572,1.42857 -0.903508,0.30117 -1.904762,0 -2.857143,0 -0.47619,0 -1.091854,-0.33671 -1.428571,0 -0.336718,0.33672 0.47619,1.42858 0,1.42858 -0.476191,0 0.47619,-1.42858 0,-1.42858 -0.673435,0 -0.952381,0.95239 -1.428572,1.42858"
       id="path4180"
       inkscape:connector-curvature="0"
       inkscape:export-filename="C:\Users\Darsh\Desktop\GGJ18\PortalPong\Assets\Sprites\elctricity.png"
       inkscape:export-xdpi="90"
       inkscape:export-ydpi="90" />
    <path
       style="fill:none;fill-rule:evenodd;stroke:#ffffff;stroke-width:2;stroke-linecap:butt;stroke-linejoin:miter;stroke-opacity:1;stroke-miterlimit:4;stroke-dasharray:none"
       d="m 351.42857,622.3622 c -6.02127,1.14528 -0.34269,4.9711 -1.42857,7.14286 -0.30117,0.60234 -1.05502,0.86824 -1.42857,1.42857 -0.59064,0.88597 -0.83793,1.97118 -1.42857,2.85715 -0.37356,0.56033 -0.95238,0.95238 -1.42857,1.42857 -1.90477,1.90476 -3.80953,3.80952 -5.71429,5.71428 -0.95238,0.95238 -2.11003,1.73648 -2.85714,2.85715 -0.26415,0.39621 0.33671,1.09185 0,1.42857 -0.75293,0.75292 -2.10422,0.67565 -2.85715,1.42857 -0.75292,0.75292 -0.78969,2.00531 -1.42857,2.85714 -0.80812,1.0775 -2.04902,1.77965 -2.85714,2.85714 -0.63888,0.85184 -0.78969,2.00531 -1.42857,2.85715 -6.17899,6.17898 -0.2239,-0.37845 -4.28572,5.71428 -0.12871,0.19308 -2.7913,2.72546 -2.85714,2.85715 -0.21296,0.42591 0,0.95238 0,1.42857 0,0.95238 0,1.90476 0,2.85714 0,0.47619 0.21296,1.00265 0,1.42857 -0.30117,0.60234 -1.1274,0.82623 -1.42857,1.42857 -0.21296,0.42592 0.15058,0.97682 0,1.42857 -0.67343,2.02031 -2.18371,3.69399 -2.85714,5.71429 -0.15059,0.45175 0,0.95238 0,1.42857 0,0.95238 0.30117,1.95364 0,2.85714 -0.21296,0.63888 -1.21562,0.7897 -1.42857,1.42858 -0.30117,0.9035 0.23098,1.93319 0,2.85714 -0.25825,1.033 -0.95239,1.90476 -1.42858,2.85714 -0.47619,0.95238 -0.78969,2.00531 -1.42857,2.85714 -0.80812,1.0775 -2.01576,1.80542 -2.85714,2.85715 -2.29852,2.87315 -2.80205,4.17553 -4.28571,7.14285 -0.47619,0.95239 -0.95239,1.90477 -1.42858,2.85715 -0.47619,0.95238 -1.09185,1.84699 -1.42857,2.85714 -0.15058,0.45175 0,0.95238 0,1.42857 0,0.47619 0,0.95238 0,1.42857 0,0.47619 0,0.95238 0,1.42857 0,0.4762 -0.33671,1.09186 0,1.42858 0.33672,0.33671 1.00266,-0.21296 1.42857,0 0.60234,0.30117 0.82624,1.1274 1.42858,1.42857 0.42591,0.21296 1.00265,-0.21296 1.42857,0 0.60234,0.30117 0.82623,1.1274 1.42857,1.42857 0.42592,0.21296 0.97682,-0.15059 1.42857,0 2.59461,0.86487 2.65121,1.22264 4.28571,2.85714 0.47619,0.47619 1.05502,0.86824 1.42858,1.42857 0.59064,0.88597 1.17032,1.82414 1.42857,2.85715 0.23098,0.92394 0,1.90476 0,2.85714 0,0.95238 0,1.90476 0,2.85714 0,0.47619 0.21296,1.00266 0,1.42857 -0.5808,1.16159 -2.26614,1.18202 -1.42857,2.85715 2.97268,5.94537 -0.0986,-1.5272 2.85714,1.42857 0.67343,0.67343 -0.67344,2.18371 0,2.85714 0.33672,0.33672 1.09185,-0.33672 1.42857,0 0.33672,0.33672 0,0.95238 0,1.42857 0,2.38095 0,4.76191 0,7.14286"
       id="path4182"
       inkscape:connector-curvature="0"
       inkscape:export-filename="C:\Users\Darsh\Desktop\GGJ18\PortalPong\Assets\Sprites\elctricity.png"
       inkscape:export-xdpi="90"
       inkscape:export-ydpi="90" />
    <path
       style="fill:none;fill-rule:evenodd;stroke:#ffffff;stroke-width:2;stroke-linecap:butt;stroke-linejoin:miter;stroke-opacity:1;stroke-miterlimit:4;stroke-dasharray:none"
       d="m 390,660.93363 c 7.14286,0 14.28571,0 21.42857,0 0.95238,0 1.90476,0 2.85714,0 1.42858,0 2.87658,-0.23485 4.28572,0 10.37844,1.72974 -0.50209,1.42857 7.14286,1.42857 3.22748,0 -0.63888,-0.21295 4.28571,1.42858 0.45175,0.15058 1.09185,-0.33672 1.42857,0 0.33672,0.33671 -0.33672,1.09185 0,1.42857 0.33672,0.33671 1.42857,-0.47619 1.42857,0 0,0.47619 -1.76529,0.33671 -1.42857,0 0.75292,-0.75293 1.84699,-1.09186 2.85714,-1.42857 0.45176,-0.15059 1.00266,0.21295 1.42858,0 0.60233,-0.30117 0.82623,-1.12741 1.42857,-1.42858 0.42592,-0.21295 0.97681,0.15059 1.42857,0 1.01015,-0.33671 1.84699,-1.09185 2.85714,-1.42857 0.45176,-0.15058 0.95238,0 1.42857,0 0.95238,0 1.90476,0 2.85715,0 1.90476,0 3.80952,0 5.71428,0 2.38095,0 4.76191,0 7.14286,0 1.90476,0 3.83544,-0.31314 5.71428,0 1.05031,0.17505 1.86851,1.03312 2.85715,1.42857 1.39814,0.55926 2.85714,0.95239 4.28571,1.42858 1.42857,0.47619 2.80036,1.18101 4.28572,1.42857 1.40913,0.23485 2.88488,-0.28017 4.28571,0 1.04412,0.20882 1.82414,1.17032 2.85714,1.42857 0.92395,0.23099 1.95364,-0.30117 2.85715,0 0.63887,0.21296 0.78969,1.21561 1.42857,1.42857 6.50326,0 0.0817,-0.67343 4.28571,1.42857 0.59593,0.29797 2.52456,-0.33258 2.85714,0 0.33672,0.33672 -0.33671,1.09186 0,1.42857 3.80953,0 -0.47619,-0.47619 1.42858,1.42857 0.33671,0.33672 1.42857,-0.47619 1.42857,0 0,0.4762 -1.42857,-0.47619 -1.42857,0 0,0.67344 1.1274,0.82624 1.42857,1.42858 0.21296,0.42591 -0.33672,1.09185 0,1.42857 0.33671,0.33671 1.09185,-0.33672 1.42857,0 0.33672,0.33671 -0.21296,1.00265 0,1.42857 0.30117,0.60234 1.1274,0.82623 1.42857,1.42857 0.21296,0.42592 -0.21296,1.00265 0,1.42857 0.30117,0.60234 1.1274,0.82623 1.42857,1.42857 0.21296,0.42592 0,0.95238 0,1.42857 0,0.4762 0,0.95239 0,1.42858 0,0.95238 0,1.90476 0,2.85714 0,0.47619 0.21296,1.00265 0,1.42857 -0.30117,0.60234 -1.1274,0.82623 -1.42857,1.42857 -0.42592,0.85184 0.42592,2.00531 0,2.85714 -0.30117,0.60234 -1.42857,0.75514 -1.42857,1.42858 0,0.47619 1.42857,-0.47619 1.42857,0 0,0.47619 -1.09185,-0.33672 -1.42857,0 -0.33672,0.33671 -0.33672,1.09185 0,1.42857 0.33672,0.33671 1.42857,-0.47619 1.42857,0 0,0.67343 -1.1274,0.82623 -1.42857,1.42857 -1.26984,2.53968 0.79365,0.79365 1.42857,1.42857 0.33672,0.33672 0,0.95238 0,1.42857 0,0.47619 0,0.95238 0,1.42857 0,0.47619 -0.21296,1.00266 0,1.42857 0.30117,0.60234 0.95238,0.95239 1.42857,1.42858 0.47619,0.47619 0.95238,0.95238 1.42857,1.42857 0.47619,0.47619 0.95238,0.95238 1.42857,1.42857 0.4762,0.47619 1.12741,0.82623 1.42858,1.42857 0.21295,0.42592 -0.33672,1.09185 0,1.42857 0.33671,0.33672 0.95238,0 1.42857,0"
       id="path4184"
       inkscape:connector-curvature="0"
       inkscape:export-filename="C:\Users\Darsh\Desktop\GGJ18\PortalPong\Assets\Sprites\elctricity.png"
       inkscape:export-xdpi="90"
       inkscape:export-ydpi="90" />
  </g>
</svg>
