<?xml version="1.0" encoding="UTF-8" standalone="no"?>
<!-- Created with Inkscape (http://www.inkscape.org/) -->

<svg
   xmlns:dc="http://purl.org/dc/elements/1.1/"
   xmlns:cc="http://creativecommons.org/ns#"
   xmlns:rdf="http://www.w3.org/1999/02/22-rdf-syntax-ns#"
   xmlns:svg="http://www.w3.org/2000/svg"
   xmlns="http://www.w3.org/2000/svg"
   xmlns:sodipodi="http://sodipodi.sourceforge.net/DTD/sodipodi-0.dtd"
   xmlns:inkscape="http://www.inkscape.org/namespaces/inkscape"
   width="210mm"
   height="297mm"
   viewBox="0 0 744.09448819 1052.3622047"
   id="svg2"
   version="1.1"
   inkscape:version="0.91 r13725"
   sodipodi:docname="RadioBall.svg"
   inkscape:export-filename="C:\Users\Darsh\Desktop\GGJ18\RadioBall.png"
   inkscape:export-xdpi="90"
   inkscape:export-ydpi="90">
  <defs
     id="defs4" />
  <sodipodi:namedview
     id="base"
     pagecolor="#ffffff"
     bordercolor="#666666"
     borderopacity="1.0"
     inkscape:pageopacity="0.0"
     inkscape:pageshadow="2"
     inkscape:zoom="1.4"
     inkscape:cx="322.21436"
     inkscape:cy="611.89539"
     inkscape:document-units="px"
     inkscape:current-layer="layer4"
     showgrid="false"
     inkscape:window-width="1536"
     inkscape:window-height="801"
     inkscape:window-x="-8"
     inkscape:window-y="-8"
     inkscape:window-maximized="1" />
  <metadata
     id="metadata7">
    <rdf:RDF>
      <cc:Work
         rdf:about="">
        <dc:format>image/svg+xml</dc:format>
        <dc:type
           rdf:resource="http://purl.org/dc/dcmitype/StillImage" />
        <dc:title></dc:title>
      </cc:Work>
    </rdf:RDF>
  </metadata>
  <g
     inkscape:label="Ball Body"
     inkscape:groupmode="layer"
     id="layer1">
    <ellipse
       style="fill:#ffff00;fill-rule:evenodd;stroke:#000000;stroke-width:1px;stroke-linecap:butt;stroke-linejoin:miter;stroke-opacity:1"
       id="path3336"
       cx="383.85797"
       cy="529.10321"
       rx="264.65997"
       ry="270.72089" />
    <rect
       style="fill:#c87137;stroke:none;stroke-width:0"
       id="rect3410"
       width="310.01154"
       height="151.44009"
       x="223.56566"
       y="558.07074" />
    <text
       xml:space="preserve"
       style="font-style:normal;font-weight:normal;font-size:35.74091721px;line-height:125%;font-family:sans-serif;letter-spacing:0px;word-spacing:0px;fill:#000000;fill-opacity:1;stroke:none;stroke-width:1px;stroke-linecap:butt;stroke-linejoin:miter;stroke-opacity:1"
       x="218.83934"
       y="613.32245"
       id="text5002"
       sodipodi:linespacing="125%"
       transform="scale(1.0388019,0.96264745)"><tspan
         sodipodi:role="line"
         id="tspan5004"
         x="218.83934"
         y="613.32245"
         style="font-style:normal;font-variant:normal;font-weight:normal;font-stretch:normal;font-family:'Comic Sans MS';-inkscape-font-specification:'Comic Sans MS';fill:#e3dbdb">Sonie</tspan></text>
    <path
       style="fill:none;fill-rule:evenodd;stroke:#00ffff;stroke-width:0.80882686px;stroke-linecap:butt;stroke-linejoin:miter;stroke-opacity:1"
       d="M 256.36983,315.31073 C 378.20596,259.86228 490.77196,307.2455 490.77196,307.2455"
       id="path4224"
       inkscape:connector-curvature="0" />
    <path
       style="fill:none;fill-rule:evenodd;stroke:#00ffff;stroke-width:0.75707853px;stroke-linecap:butt;stroke-linejoin:miter;stroke-opacity:1"
       d="m 271.36998,348.00001 c 106.6194,-55.51368 205.12647,-8.07472 205.12647,-8.07472"
       id="path4224-8"
       inkscape:connector-curvature="0" />
    <path
       style="fill:none;fill-rule:evenodd;stroke:#00ffff;stroke-width:0.69002658px;stroke-linecap:butt;stroke-linejoin:miter;stroke-opacity:1"
       d="m 282.79014,376.59198 c 88.43524,-55.59819 170.14172,-8.08701 170.14172,-8.08701"
       id="path4224-3"
       inkscape:connector-curvature="0" />
    <path
       style="fill:none;fill-rule:evenodd;stroke:#00ffff;stroke-width:0.61875564px;stroke-linecap:butt;stroke-linejoin:miter;stroke-opacity:1"
       d="m 297.77991,410.18524 c 70.99552,-55.68802 136.58922,-8.10008 136.58922,-8.10008"
       id="path4224-89"
       inkscape:connector-curvature="0" />
    <path
       style="fill:none;fill-rule:evenodd;stroke:#00ffff;stroke-width:0.55072433px;stroke-linecap:butt;stroke-linejoin:miter;stroke-opacity:1"
       d="m 314.1975,439.49179 c 56.15558,-55.77377 108.03846,-8.11255 108.03846,-8.11255"
       id="path4224-5"
       inkscape:connector-curvature="0" />
  </g>
  <g
     inkscape:groupmode="layer"
     id="layer3"
     inkscape:label="Radio Body">
    <rect
       style="fill:#d38d5f;stroke:#00ffff;stroke-width:0"
       id="rect5060"
       width="77.85714"
       height="56.42857"
       x="446.42856"
       y="565.21936" />
    <ellipse
       style="fill:#000000;stroke:#00ffff;stroke-width:0"
       id="path5062"
       cx="453.57144"
       cy="572.36218"
       rx="0.71428573"
       ry="1.4285715" />
    <ellipse
       style="fill:#000000;stroke:#00ffff;stroke-width:0"
       id="path5062-7"
       cx="465.71429"
       cy="572.36218"
       rx="0.71428573"
       ry="1.4285715" />
    <ellipse
       style="fill:#000000;stroke:#00ffff;stroke-width:0"
       id="path5062-6"
       cx="462.14285"
       cy="593.79077"
       rx="0.71428573"
       ry="1.4285715" />
    <ellipse
       style="fill:#000000;stroke:#00ffff;stroke-width:0"
       id="path5062-4"
       cx="490.71429"
       cy="581.64789"
       rx="0.71428573"
       ry="1.4285715" />
    <ellipse
       style="fill:#000000;stroke:#00ffff;stroke-width:0"
       id="path5062-0"
       cx="481.42856"
       cy="598.79077"
       rx="0.71428573"
       ry="1.4285715" />
    <ellipse
       style="fill:#000000;stroke:#00ffff;stroke-width:0"
       id="path5062-66"
       cx="457.14285"
       cy="605.93365"
       rx="0.71428573"
       ry="1.4285715" />
    <ellipse
       style="fill:#000000;stroke:#00ffff;stroke-width:0"
       id="path5062-43"
       cx="456.42856"
       cy="585.21936"
       rx="0.71428573"
       ry="1.4285715" />
    <ellipse
       style="fill:#000000;stroke:#00ffff;stroke-width:0"
       id="path5062-75"
       cx="475"
       cy="585.93365"
       rx="0.71428573"
       ry="1.4285715" />
    <ellipse
       style="fill:#000000;stroke:#00ffff;stroke-width:0"
       id="path5062-61"
       cx="485"
       cy="575.21936"
       rx="0.71428573"
       ry="1.4285715" />
    <ellipse
       style="fill:#000000;stroke:#00ffff;stroke-width:0"
       id="path5062-2"
       cx="502.14285"
       cy="577.36218"
       rx="0.71428573"
       ry="1.4285715" />
    <ellipse
       style="fill:#000000;stroke:#00ffff;stroke-width:0"
       id="path5062-1"
       cx="515.71429"
       cy="578.07648"
       rx="0.71428573"
       ry="1.4285715" />
    <ellipse
       style="fill:#000000;stroke:#00ffff;stroke-width:0"
       id="path5062-5"
       cx="512.85712"
       cy="598.07648"
       rx="0.71428573"
       ry="1.4285715" />
    <ellipse
       style="fill:#000000;stroke:#00ffff;stroke-width:0"
       id="path5062-03"
       cx="498.57144"
       cy="603.07648"
       rx="0.71428573"
       ry="1.4285715" />
    <ellipse
       style="fill:#000000;stroke:#00ffff;stroke-width:0"
       id="path5062-9"
       cx="512.14288"
       cy="587.36218"
       rx="0.71428573"
       ry="1.4285715" />
    <ellipse
       style="fill:#000000;stroke:#00ffff;stroke-width:0"
       id="path5062-98"
       cx="512.85712"
       cy="608.79077"
       rx="0.71428573"
       ry="1.4285715" />
    <ellipse
       style="fill:#000000;stroke:#00ffff;stroke-width:0"
       id="path5062-67"
       cx="482.14285"
       cy="611.64789"
       rx="0.71428573"
       ry="1.4285715" />
    <ellipse
       style="fill:#000000;stroke:#00ffff;stroke-width:0"
       id="path5062-15"
       cx="461.42856"
       cy="616.64789"
       rx="0.71428573"
       ry="1.4285715" />
    <ellipse
       style="fill:#000000;stroke:#00ffff;stroke-width:0"
       id="path5062-19"
       cx="502.14285"
       cy="614.50507"
       rx="0.71428573"
       ry="1.4285715" />
    <ellipse
       style="fill:#000000;stroke:#00ffff;stroke-width:0"
       id="path5062-3"
       cx="502.14285"
       cy="592.36218"
       rx="0.71428573"
       ry="1.4285715" />
    <ellipse
       style="fill:#000000;stroke:#00ffff;stroke-width:0"
       id="path5062-41"
       cx="487.14285"
       cy="590.93365"
       rx="0.71428573"
       ry="1.4285715" />
    <ellipse
       style="fill:#000000;stroke:#00ffff;stroke-width:0"
       id="path5062-51"
       cx="496.42856"
       cy="570.21936"
       rx="0.71428573"
       ry="1.4285715" />
    <ellipse
       style="fill:#000000;stroke:#00ffff;stroke-width:0"
       id="path5062-79"
       cx="519.28571"
       cy="570.21936"
       rx="0.71428573"
       ry="1.4285715" />
    <ellipse
       style="fill:#000000;stroke:#00ffff;stroke-width:0"
       id="path5062-33"
       cx="517.85712"
       cy="618.07648"
       rx="0.71428573"
       ry="1.4285715" />
    <ellipse
       style="fill:#000000;stroke:#00ffff;stroke-width:0"
       id="path5062-96"
       cx="471.42856"
       cy="606.64789"
       rx="0.71428573"
       ry="1.4285715" />
    <ellipse
       style="fill:#000000;stroke:#00ffff;stroke-width:0"
       id="path5062-757"
       cx="520.71429"
       cy="595.93365"
       rx="0.71428573"
       ry="1.4285715" />
    <ellipse
       style="fill:#000000;stroke:#00ffff;stroke-width:0"
       id="path5062-09"
       cx="520.71429"
       cy="581.64789"
       rx="0.71428573"
       ry="1.4285715" />
    <ellipse
       style="fill:#000000;stroke:#00ffff;stroke-width:0"
       id="path5062-38"
       cx="520.71429"
       cy="607.36218"
       rx="0.71428573"
       ry="1.4285715" />
    <ellipse
       style="fill:#000000;stroke:#00ffff;stroke-width:0"
       id="path5062-71"
       cx="453.57144"
       cy="595.21936"
       rx="0.71428573"
       ry="1.4285715" />
    <ellipse
       style="fill:#000000;stroke:#00ffff;stroke-width:0"
       id="path5062-8"
       cx="452.14285"
       cy="616.64789"
       rx="0.71428573"
       ry="1.4285715" />
    <ellipse
       style="fill:#000000;stroke:#00ffff;stroke-width:0"
       id="path5062-58"
       cx="471.42856"
       cy="618.79077"
       rx="0.71428573"
       ry="1.4285715" />
    <ellipse
       style="fill:#000000;stroke:#00ffff;stroke-width:0"
       id="path5062-22"
       cx="491.42856"
       cy="611.64789"
       rx="0.71428573"
       ry="1.4285715" />
    <ellipse
       style="fill:#000000;stroke:#00ffff;stroke-width:0"
       id="path5062-969"
       cx="477.14285"
       cy="573.79077"
       rx="0.71428573"
       ry="1.4285715" />
    <ellipse
       style="fill:#000000;stroke:#00ffff;stroke-width:0"
       id="path5062-84"
       cx="472.85715"
       cy="595.21936"
       rx="0.71428573"
       ry="1.4285715" />
    <path
       style="fill:#c8beb7;fill-rule:evenodd;stroke:#c8beb7;stroke-width:1px;stroke-linecap:butt;stroke-linejoin:miter;stroke-opacity:1"
       d="m 262.14286,557.3622 111.42857,-110"
       id="path5283"
       inkscape:connector-curvature="0" />
    <path
       style="fill:#c8beb7;fill-rule:evenodd;stroke:#c8beb7;stroke-width:1px;stroke-linecap:butt;stroke-linejoin:miter;stroke-opacity:1"
       d="M 447.85714,559.50506 285,453.07649"
       id="path5285"
       inkscape:connector-curvature="0" />
    <ellipse
       style="fill:#c8beb7;stroke:#c8beb7;stroke-width:0"
       id="path5287"
       cx="281.78571"
       cy="450.21936"
       rx="4.6428571"
       ry="4.2857141" />
    <ellipse
       style="fill:#c8beb7;stroke:#c8beb7;stroke-width:0"
       id="path5289"
       cx="375.35715"
       cy="446.64792"
       rx="4.6428571"
       ry="5" />
  </g>
  <g
     inkscape:groupmode="layer"
     id="layer5"
     inkscape:label="Tape Decks">
    <rect
       style="fill:#241f1c;stroke:#00ffff;stroke-width:0"
       id="rect4275"
       width="112.14286"
       height="71.428574"
       x="253.57143"
       y="633.79077" />
    <rect
       style="fill:#241f1c;stroke:#00ffff;stroke-width:0"
       id="rect4277"
       width="119.28571"
       height="72.14286"
       x="385"
       y="633.79077" />
    <rect
       style="fill:#e3dedb;stroke:#00ffff;stroke-width:0"
       id="rect4281"
       width="102.14286"
       height="17.142857"
       x="258.57144"
       y="643.07648" />
    <rect
       style="fill:#e3dedb;stroke:#00ffff;stroke-width:0"
       id="rect4281-2"
       width="102.14286"
       height="17.142857"
       x="394.40585"
       y="642.76019" />
    <rect
       style="fill:#6c5d53;stroke:#00ffff;stroke-width:0"
       id="rect4308"
       width="87.88327"
       height="10.606602"
       x="266.1752"
       y="649.81641" />
    <rect
       style="fill:#6c5d53;stroke:#00ffff;stroke-width:0"
       id="rect4308-5"
       width="87.88327"
       height="10.606602"
       x="401.03055"
       y="649.05878" />
    <path
       style="fill:#e3dedb;stroke:#00ffff;stroke-width:0"
       d="m 287.38717,651.33193 a 8.5864565,8.3588684 0 0 0 -8.58625,8.35872 8.5864565,8.3588684 0 0 0 0.036,0.67793 l 0.55096,0 c 0.30139,0 0.60243,-10e-6 0.90381,0 0.22783,0 0.45595,2e-5 0.68378,0 0.31216,6e-5 0.6243,-2.1e-4 0.93646,-5.9e-4 0.14932,0 0.29883,5e-5 0.44796,0.003 0.25951,-0.0154 0.70176,0.007 0.7333,10e-4 0.31484,-0.0252 0.65623,-0.0755 0.96347,0.0303 0.0147,0.005 0.0438,0.0142 0.0636,0.0204 0.11766,-0.0311 0.20418,-0.0337 0.2026,0.046 0.20444,-0.0612 0.0745,-0.1178 0.24255,-0.042 -0.053,0.0169 -0.16021,0.0416 -0.2403,0.0623 0.028,0.0103 0.0434,0.0196 0.0636,0.0297 0.18276,-0.0203 0.36352,-0.0754 0.54758,-0.0833 0.005,-2.1e-4 0.0149,0.003 0.0214,0.004 0.0515,-0.008 0.10295,-0.0114 0.15251,0.002 0.003,6.8e-4 0.01,0.003 0.013,0.004 0.029,-6.8e-4 0.057,-10e-4 0.0811,-10e-4 0.0508,-0.0172 0.0988,-0.0272 0.14407,-0.0291 0.0268,-0.0132 0.043,-0.0196 0.0281,-0.003 -0.009,-3e-4 -0.0188,0.002 -0.0281,0.003 -0.0197,0.01 -0.04,0.0195 -0.0692,0.0361 0.0132,0.003 0.0288,0.007 0.0467,0.0128 0.0193,-0.0197 0.0281,-0.0275 0.0484,-0.0483 10e-4,-0.002 10e-4,-0.002 0.003,-0.003 0.0393,0.001 0.0792,0.0116 0.11987,0.0291 0.039,-0.0154 0.0683,-0.0252 0.0484,-0.01 -0.008,0.006 -0.0195,0.0111 -0.0287,0.0169 0.009,0.005 0.0207,0.0147 0.0304,0.0204 0.12987,-0.0361 0.25898,-0.0759 0.38888,-0.11183 0.0579,0.0108 0.11619,0.0229 0.17784,0.0343 0.0582,-0.002 0.11621,5.9e-4 0.17559,0.008 0.0415,-0.008 0.0886,-0.021 0.12268,-0.0245 0.0858,-0.009 0.22943,0.0305 0.34498,0.0856 0.0234,-0.008 0.046,-0.0176 0.0698,-0.0239 0.0145,-0.004 0.0365,-0.003 0.0574,-0.003 0.083,-0.0195 0.16592,-0.0383 0.25043,-0.0477 0.0654,-0.007 0.17294,-0.0254 0.19416,0.039 5.8e-4,10e-4 -0.001,0.002 -0.001,0.003 0.12457,-0.0259 0.24918,-0.0577 0.23018,0.032 -0.004,0.0199 -0.0113,0.0387 -0.0163,0.0582 l 0.28701,0 0.58247,0 0.57798,0 c 0.28588,0 0.57179,10e-6 0.85766,0 0.28916,2e-5 0.57809,2.4e-4 0.86724,0 0.19788,-6e-4 0.39585,0.002 0.59373,-5.8e-4 0.27937,-0.003 0.55824,-6.8e-4 0.83741,0.007 0.26838,-0.0102 0.91046,-0.0926 1.11598,0.0326 -0.0734,0.01 -0.1864,0.0339 -0.15701,0.0472 0.0664,-0.01 0.12219,-0.0227 0.17052,-0.0379 -0.004,-0.003 -0.008,-0.007 -0.013,-0.009 0.0407,-0.005 0.0716,-0.008 0.049,10e-4 -0.009,0.003 -0.0257,0.005 -0.0361,0.008 0.0273,0.0173 0.0528,0.0373 0.0788,0.0565 0.10374,-0.003 0.21423,-0.0126 0.31066,-0.0163 0.33904,-0.18576 0.70601,-0.27978 0.86836,-0.0687 0.32226,-0.15014 1.13048,0.0145 1.3788,0.0489 a 8.5864565,8.3588684 0 0 0 0.063,-0.89691 8.5864565,8.3588684 0 0 0 -8.58682,-8.35872 z m -1.87066,9.11702 c -0.007,-0.003 -0.013,-0.004 -0.0197,-0.007 -0.0325,0.0128 -0.0652,0.0273 -0.0991,0.0437 0.0113,0.003 0.0213,0.003 0.0332,0.007 0.0319,-0.0132 0.0601,-0.0279 0.0855,-0.0436 z m -0.0855,0.0436 c -0.005,0.002 -0.01,0.004 -0.0147,0.006 10e-4,6.8e-4 0.004,10e-4 0.006,0.002 0.007,-0.002 0.0146,-0.004 0.022,-0.006 -0.005,-0.002 -0.008,-10e-4 -0.013,-0.003 z m -0.0147,0.006 c -0.008,-0.003 -0.0165,-0.008 -0.0242,-0.0111 -0.0254,0.0124 -0.0486,0.0242 -0.0546,0.0297 0.004,10e-4 0.006,0.002 0.01,0.003 0.0142,-0.003 0.028,-0.008 0.0422,-0.0111 0.009,-0.003 0.0179,-0.007 0.027,-0.0105 z m -0.0242,-0.0111 c 10e-4,-6.8e-4 0.004,-10e-4 0.006,-0.002 -0.008,-0.002 -0.0159,-0.005 -0.0237,-0.006 0.006,0.002 0.0123,0.006 0.018,0.008 z m -1.0991,-0.0641 c -0.009,-6e-4 -0.0541,0.0105 -0.1013,0.0222 0.005,10e-4 0.008,0.003 0.013,0.004 0.0247,-0.006 0.057,-0.009 0.076,-0.0169 0.014,-0.006 0.0174,-0.009 0.0124,-0.009 z m 2.64223,0.006 c -0.006,10e-4 -0.0109,0.003 -0.018,0.004 0.0203,0.002 0.0404,0.005 0.0602,0.01 -0.0222,-0.007 -0.0166,-0.005 -0.0422,-0.014 z m -1.89261,0.005 c 0.005,-6.8e-4 -0.0582,0.007 -0.0653,0.008 0.004,6e-4 0.008,10e-4 0.0118,0.002 0.0113,-0.002 0.0491,-0.009 0.0535,-0.01 z m 1.98941,0.0268 c 0.0278,0.012 0.0482,0.0257 0.0433,0.042 0.0234,-0.003 0.0475,-0.004 0.072,-0.003 -0.0269,-0.009 -0.066,-0.0226 -0.11537,-0.0384 z m -1.71646,0.0122 c -0.019,0.003 -0.0388,0.006 -0.0608,0.0152 0.0119,0.003 0.0215,0.008 0.0338,0.0116 0.0103,-0.0105 0.0164,-0.016 0.027,-0.0268 z m 9.56886,0.0629 c -0.0553,10e-4 -0.0994,0.014 -0.0951,0.0309 0.0293,-0.004 0.0583,-0.0119 0.0878,-0.014 0.0498,-0.003 0.10811,0.0156 0.16883,0.0495 -0.001,-0.004 -0.001,-0.009 -0.003,-0.0134 -0.0125,-0.0405 -0.0915,-0.0547 -0.15871,-0.053 z m -1.16382,0.0606 c 0.006,-0.003 -0.02,0.0105 -0.0174,0.009 5.9e-4,-2e-5 0.001,0 0.001,0 0.007,-0.005 0.008,-0.004 0.0157,-0.009 z m -8.76297,0.106 c -0.0285,0.0263 -0.0502,0.0522 -0.0771,0.0792 0.0274,-3.8e-4 0.0548,-10e-6 0.0822,0 0.007,-0.019 0.0115,-0.041 0.0203,-0.0577 -0.004,0.0173 5.2e-4,0.0368 0.008,0.0577 0.004,2e-5 0.009,-4e-5 0.013,0 0.0183,-0.0181 0.0412,-0.0413 0.0585,-0.0582 -0.0248,-0.003 -0.0482,-0.01 -0.0726,-0.0145 0,0 -5.6e-4,0 -5.6e-4,0 -0.0105,-0.002 -0.021,-0.004 -0.0315,-0.006 l -5.6e-4,0 z m 2.91517,0.003 -0.16489,0.25801 c 0.0358,0.001 0.0717,0.001 0.10693,0.006 0.16803,0.0254 0.27724,0.0501 0.38043,0.0798 -0.017,-0.16668 -0.15465,-0.27007 -0.32247,-0.34421 z m 5.28109,0.24811 c -0.004,0.008 -0.006,0.0151 -0.008,0.0221 0.003,-4e-5 0.006,6.1e-4 0.008,5.8e-4 10e-4,-0.002 0.003,-0.004 0.005,-0.006 -0.004,-0.005 -0.004,-0.0109 -0.004,-0.0163 -2.9e-4,-8e-5 -7.1e-4,-5.8e-4 -10e-4,-5.8e-4 z m -7.25192,0.53989 c -0.0195,5.9e-4 -0.0357,0.005 -0.054,0.006 -0.0102,0.0219 -0.0174,0.0445 -0.0254,0.067 0.004,4e-5 0.006,-5e-5 0.01,0 0.0478,-0.0294 0.0788,-0.0473 0.11875,-0.0687 -2.8e-4,-5e-4 -7.1e-4,-6.6e-4 -0.001,-10e-4 -0.0158,-6.8e-4 -0.033,-0.004 -0.0478,-0.003 z m 0.0698,0.0425 c -0.0132,0.0101 -0.0277,0.0205 -0.0422,0.0314 0.02,5.4e-4 0.0402,3.3e-4 0.0602,5.8e-4 -0.008,-0.0139 -0.011,-0.019 -0.018,-0.032 z m 9.22108,0.18113 c -0.0277,0.009 -0.0655,0.0127 -0.0968,0.0198 0.004,0.009 0.006,0.0186 0.01,0.0274 0.0635,0.16561 0.0564,0.0681 0.0861,0.16948 0.006,-3.7e-4 0.0155,10e-4 0.0214,5.8e-4 -0.009,-0.0719 -0.0141,-0.14466 -0.0203,-0.21723 z m 0.4474,0.19627 c -0.10806,0.005 -0.25107,0.0533 -0.39056,0.0973 0.0528,-0.003 0.10563,-0.005 0.15757,0.003 0.0684,0.0113 0.13068,0.0299 0.19528,0.0466 a 8.5864565,8.3588684 0 0 0 0.0377,-0.14676 z"
       id="path4333"
       inkscape:connector-curvature="0" />
    <path
       style="fill:#e3dedb;stroke:#00ffff;stroke-width:0"
       d="m 330.82447,651.52331 a 8.5864565,8.3588684 0 0 0 -8.58625,8.35872 8.5864565,8.3588684 0 0 0 0.036,0.67793 l 0.55096,0 c 0.30139,0 0.60243,-1e-5 0.90381,0 0.22783,0 0.45595,2e-5 0.68378,0 0.31216,6e-5 0.6243,-2.1e-4 0.93646,-5.9e-4 0.14932,0 0.29883,5e-5 0.44796,0.003 0.25951,-0.0154 0.70176,0.007 0.7333,10e-4 0.31484,-0.0252 0.65623,-0.0755 0.96347,0.0303 0.0147,0.005 0.0438,0.0142 0.0636,0.0204 0.11766,-0.0311 0.20418,-0.0337 0.2026,0.046 0.20444,-0.0612 0.0745,-0.1178 0.24255,-0.042 -0.053,0.0169 -0.16021,0.0416 -0.2403,0.0623 0.028,0.0103 0.0434,0.0196 0.0636,0.0297 0.18276,-0.0203 0.36352,-0.0754 0.54758,-0.0833 0.005,-2.1e-4 0.0149,0.003 0.0214,0.004 0.0515,-0.008 0.10295,-0.0114 0.15251,0.002 0.003,6.8e-4 0.01,0.003 0.013,0.004 0.029,-6.8e-4 0.057,-10e-4 0.0811,-10e-4 0.0508,-0.0172 0.0988,-0.0272 0.14407,-0.0291 0.0268,-0.0132 0.043,-0.0196 0.0281,-0.003 -0.009,-3e-4 -0.0188,0.002 -0.0281,0.003 -0.0197,0.01 -0.04,0.0195 -0.0692,0.0361 0.0132,0.003 0.0288,0.007 0.0467,0.0128 0.0193,-0.0197 0.0281,-0.0275 0.0484,-0.0483 10e-4,-0.002 10e-4,-0.002 0.003,-0.003 0.0393,10e-4 0.0792,0.0116 0.11987,0.0291 0.039,-0.0154 0.0683,-0.0252 0.0484,-0.01 -0.008,0.006 -0.0195,0.0111 -0.0287,0.0169 0.009,0.005 0.0207,0.0147 0.0304,0.0204 0.12987,-0.0361 0.25898,-0.0759 0.38888,-0.11183 0.0579,0.0108 0.11619,0.0229 0.17784,0.0343 0.0582,-0.002 0.11621,5.9e-4 0.17559,0.008 0.0415,-0.008 0.0886,-0.021 0.12268,-0.0245 0.0858,-0.009 0.22943,0.0305 0.34498,0.0856 0.0234,-0.008 0.046,-0.0176 0.0698,-0.0239 0.0145,-0.004 0.0365,-0.003 0.0574,-0.003 0.083,-0.0195 0.16592,-0.0383 0.25043,-0.0477 0.0654,-0.007 0.17294,-0.0254 0.19416,0.039 5.8e-4,0.001 -10e-4,0.002 -10e-4,0.003 0.12457,-0.0259 0.24918,-0.0577 0.23018,0.032 -0.004,0.0199 -0.0113,0.0387 -0.0163,0.0582 l 0.28701,0 0.58247,0 0.57798,0 c 0.28588,0 0.57179,10e-6 0.85766,0 0.28916,2e-5 0.57809,2.4e-4 0.86724,0 0.19788,-6e-4 0.39585,0.002 0.59373,-5.8e-4 0.27937,-0.003 0.55824,-6.8e-4 0.83741,0.007 0.26838,-0.0102 0.91046,-0.0926 1.11598,0.0326 -0.0734,0.01 -0.1864,0.0339 -0.15701,0.0472 0.0664,-0.01 0.12219,-0.0227 0.17052,-0.0379 -0.004,-0.003 -0.008,-0.007 -0.013,-0.009 0.0407,-0.005 0.0716,-0.008 0.049,0.001 -0.009,0.003 -0.0257,0.005 -0.0361,0.008 0.0273,0.0173 0.0528,0.0373 0.0788,0.0565 0.10374,-0.003 0.21423,-0.0126 0.31066,-0.0163 0.33904,-0.18576 0.70601,-0.27978 0.86836,-0.0687 0.32226,-0.15014 1.13048,0.0145 1.3788,0.0489 a 8.5864565,8.3588684 0 0 0 0.063,-0.89691 8.5864565,8.3588684 0 0 0 -8.58682,-8.35872 z m -1.87066,9.11702 c -0.007,-0.003 -0.013,-0.004 -0.0197,-0.007 -0.0325,0.0128 -0.0652,0.0273 -0.0991,0.0437 0.0113,0.003 0.0213,0.003 0.0332,0.007 0.0319,-0.0132 0.0601,-0.0279 0.0855,-0.0436 z m -0.0855,0.0436 c -0.005,0.002 -0.01,0.004 -0.0147,0.006 10e-4,6.8e-4 0.004,10e-4 0.006,0.002 0.007,-0.002 0.0146,-0.004 0.022,-0.006 -0.005,-0.002 -0.008,-10e-4 -0.013,-0.003 z m -0.0147,0.006 c -0.008,-0.003 -0.0165,-0.008 -0.0242,-0.0111 -0.0254,0.0124 -0.0486,0.0242 -0.0546,0.0297 0.004,10e-4 0.006,0.002 0.01,0.003 0.0142,-0.003 0.028,-0.008 0.0422,-0.0111 0.009,-0.003 0.0179,-0.007 0.027,-0.0105 z m -0.0242,-0.0111 c 10e-4,-6.8e-4 0.004,-10e-4 0.006,-0.002 -0.008,-0.002 -0.0159,-0.005 -0.0237,-0.006 0.006,0.002 0.0123,0.006 0.018,0.008 z m -1.0991,-0.0641 c -0.009,-6e-4 -0.0541,0.0105 -0.1013,0.0222 0.005,10e-4 0.008,0.003 0.013,0.004 0.0247,-0.006 0.057,-0.009 0.076,-0.0169 0.014,-0.006 0.0174,-0.009 0.0124,-0.009 z m 2.64223,0.006 c -0.006,10e-4 -0.0109,0.003 -0.018,0.004 0.0203,0.002 0.0404,0.005 0.0602,0.01 -0.0222,-0.007 -0.0166,-0.005 -0.0422,-0.014 z m -1.89261,0.005 c 0.005,-6.8e-4 -0.0582,0.007 -0.0653,0.008 0.004,6e-4 0.008,10e-4 0.0118,0.002 0.0113,-0.002 0.0491,-0.009 0.0535,-0.01 z m 1.98941,0.0268 c 0.0278,0.012 0.0482,0.0257 0.0433,0.042 0.0234,-0.003 0.0475,-0.004 0.072,-0.003 -0.0269,-0.009 -0.066,-0.0226 -0.11537,-0.0384 z m -1.71646,0.0122 c -0.019,0.003 -0.0388,0.006 -0.0608,0.0152 0.0119,0.003 0.0215,0.008 0.0338,0.0116 0.0103,-0.0105 0.0164,-0.016 0.027,-0.0268 z m 9.56886,0.0629 c -0.0553,10e-4 -0.0994,0.014 -0.0951,0.0309 0.0293,-0.004 0.0583,-0.0119 0.0878,-0.014 0.0498,-0.003 0.10811,0.0156 0.16883,0.0495 -10e-4,-0.004 -10e-4,-0.009 -0.003,-0.0134 -0.0125,-0.0405 -0.0915,-0.0547 -0.15871,-0.053 z m -1.16382,0.0606 c 0.006,-0.003 -0.02,0.0105 -0.0174,0.009 5.9e-4,-2e-5 0.001,0 0.001,0 0.007,-0.005 0.008,-0.004 0.0157,-0.009 z m -8.76297,0.106 c -0.0285,0.0263 -0.0502,0.0522 -0.0771,0.0792 0.0274,-3.8e-4 0.0548,-10e-6 0.0822,0 0.007,-0.019 0.0115,-0.041 0.0203,-0.0577 -0.004,0.0173 5.2e-4,0.0368 0.008,0.0577 0.004,2e-5 0.009,-4e-5 0.013,0 0.0183,-0.0181 0.0412,-0.0413 0.0585,-0.0582 -0.0248,-0.003 -0.0482,-0.01 -0.0726,-0.0145 0,0 -5.6e-4,0 -5.6e-4,0 -0.0105,-0.002 -0.021,-0.004 -0.0315,-0.006 l -5.6e-4,0 z m 2.91517,0.003 -0.16489,0.25801 c 0.0358,10e-4 0.0717,10e-4 0.10693,0.006 0.16803,0.0254 0.27724,0.0501 0.38043,0.0798 -0.017,-0.16668 -0.15465,-0.27007 -0.32247,-0.34421 z m 5.28109,0.24811 c -0.004,0.008 -0.006,0.0151 -0.008,0.0221 0.003,-4e-5 0.006,6.1e-4 0.008,5.8e-4 0.001,-0.002 0.003,-0.004 0.005,-0.006 -0.004,-0.005 -0.004,-0.0109 -0.004,-0.0163 -2.9e-4,-8e-5 -7.1e-4,-5.8e-4 -0.001,-5.8e-4 z m -7.25192,0.53989 c -0.0195,5.9e-4 -0.0357,0.005 -0.054,0.006 -0.0102,0.0219 -0.0174,0.0445 -0.0254,0.067 0.004,4e-5 0.006,-5e-5 0.01,0 0.0478,-0.0294 0.0788,-0.0473 0.11875,-0.0687 -2.8e-4,-5e-4 -7.1e-4,-6.6e-4 -0.001,-10e-4 -0.0158,-6.8e-4 -0.033,-0.004 -0.0478,-0.003 z m 0.0698,0.0425 c -0.0132,0.0101 -0.0277,0.0205 -0.0422,0.0314 0.02,5.4e-4 0.0402,3.3e-4 0.0602,5.8e-4 -0.008,-0.0139 -0.011,-0.019 -0.018,-0.032 z m 9.22108,0.18113 c -0.0277,0.009 -0.0655,0.0127 -0.0968,0.0198 0.004,0.009 0.006,0.0186 0.01,0.0274 0.0635,0.16561 0.0564,0.0681 0.0861,0.16948 0.006,-3.7e-4 0.0155,10e-4 0.0214,5.8e-4 -0.009,-0.0719 -0.0141,-0.14466 -0.0203,-0.21723 z m 0.4474,0.19627 c -0.10806,0.005 -0.25107,0.0533 -0.39056,0.0973 0.0528,-0.003 0.10563,-0.005 0.15757,0.003 0.0684,0.0113 0.13068,0.0299 0.19528,0.0466 a 8.5864565,8.3588684 0 0 0 0.0377,-0.14676 z"
       id="path4333-2"
       inkscape:connector-curvature="0" />
    <path
       style="fill:#e3dedb;stroke:#00ffff;stroke-width:0"
       d="m 420.72805,650.00808 a 8.5864565,8.3588684 0 0 0 -8.58625,8.35872 8.5864565,8.3588684 0 0 0 0.036,0.67793 l 0.55096,0 c 0.30139,0 0.60243,-10e-6 0.90381,0 0.22783,0 0.45595,2e-5 0.68378,0 0.31216,6e-5 0.6243,-2.1e-4 0.93646,-5.9e-4 0.14932,0 0.29883,5e-5 0.44796,0.003 0.25951,-0.0154 0.70176,0.007 0.7333,10e-4 0.31484,-0.0252 0.65623,-0.0755 0.96347,0.0303 0.0147,0.005 0.0438,0.0142 0.0636,0.0204 0.11766,-0.0311 0.20418,-0.0337 0.2026,0.046 0.20444,-0.0612 0.0745,-0.1178 0.24255,-0.042 -0.053,0.0169 -0.16021,0.0416 -0.2403,0.0623 0.028,0.0103 0.0434,0.0196 0.0636,0.0297 0.18276,-0.0203 0.36352,-0.0754 0.54758,-0.0833 0.005,-2.1e-4 0.0149,0.003 0.0214,0.004 0.0515,-0.008 0.10295,-0.0114 0.15251,0.002 0.003,6.8e-4 0.01,0.003 0.013,0.004 0.029,-6.8e-4 0.057,-10e-4 0.0811,-10e-4 0.0508,-0.0172 0.0988,-0.0272 0.14407,-0.0291 0.0268,-0.0132 0.043,-0.0196 0.0281,-0.003 -0.009,-3e-4 -0.0188,0.002 -0.0281,0.003 -0.0197,0.01 -0.04,0.0195 -0.0692,0.0361 0.0132,0.003 0.0288,0.007 0.0467,0.0128 0.0193,-0.0197 0.0281,-0.0275 0.0484,-0.0483 0.001,-0.002 0.001,-0.002 0.003,-0.003 0.0393,0.001 0.0792,0.0116 0.11987,0.0291 0.039,-0.0154 0.0683,-0.0252 0.0484,-0.01 -0.008,0.006 -0.0195,0.0111 -0.0287,0.0169 0.009,0.005 0.0207,0.0147 0.0304,0.0204 0.12987,-0.0361 0.25898,-0.0759 0.38888,-0.11183 0.0579,0.0108 0.11619,0.0229 0.17784,0.0343 0.0582,-0.002 0.11621,5.9e-4 0.17559,0.008 0.0415,-0.008 0.0886,-0.021 0.12268,-0.0245 0.0858,-0.009 0.22943,0.0305 0.34498,0.0856 0.0234,-0.008 0.046,-0.0176 0.0698,-0.0239 0.0145,-0.004 0.0365,-0.003 0.0574,-0.003 0.083,-0.0195 0.16592,-0.0383 0.25043,-0.0477 0.0654,-0.007 0.17294,-0.0254 0.19416,0.039 5.8e-4,10e-4 -10e-4,0.002 -10e-4,0.003 0.12457,-0.0259 0.24918,-0.0577 0.23018,0.032 -0.004,0.0199 -0.0113,0.0387 -0.0163,0.0582 l 0.28701,0 0.58247,0 0.57798,0 c 0.28588,0 0.57179,10e-6 0.85766,0 0.28916,2e-5 0.57809,2.4e-4 0.86724,0 0.19788,-6e-4 0.39585,0.002 0.59373,-5.8e-4 0.27937,-0.003 0.55824,-6.8e-4 0.83741,0.007 0.26838,-0.0102 0.91046,-0.0926 1.11598,0.0326 -0.0734,0.01 -0.1864,0.0339 -0.15701,0.0472 0.0664,-0.01 0.12219,-0.0227 0.17052,-0.0379 -0.004,-0.003 -0.008,-0.007 -0.013,-0.009 0.0407,-0.005 0.0716,-0.008 0.049,10e-4 -0.009,0.003 -0.0257,0.005 -0.0361,0.008 0.0273,0.0173 0.0528,0.0373 0.0788,0.0565 0.10374,-0.003 0.21423,-0.0126 0.31066,-0.0163 0.33904,-0.18576 0.70601,-0.27978 0.86836,-0.0687 0.32226,-0.15014 1.13048,0.0145 1.3788,0.0489 a 8.5864565,8.3588684 0 0 0 0.063,-0.89691 8.5864565,8.3588684 0 0 0 -8.58682,-8.35872 z m -1.87066,9.11702 c -0.007,-0.003 -0.013,-0.004 -0.0197,-0.007 -0.0325,0.0128 -0.0652,0.0273 -0.0991,0.0437 0.0113,0.003 0.0213,0.003 0.0332,0.007 0.0319,-0.0132 0.0601,-0.0279 0.0855,-0.0436 z m -0.0855,0.0436 c -0.005,0.002 -0.01,0.004 -0.0147,0.006 0.001,6.8e-4 0.004,10e-4 0.006,0.002 0.007,-0.002 0.0146,-0.004 0.022,-0.006 -0.005,-0.002 -0.008,-10e-4 -0.013,-0.003 z m -0.0147,0.006 c -0.008,-0.003 -0.0165,-0.008 -0.0242,-0.0111 -0.0254,0.0124 -0.0486,0.0242 -0.0546,0.0297 0.004,10e-4 0.006,0.002 0.01,0.003 0.0142,-0.003 0.028,-0.008 0.0422,-0.0111 0.009,-0.003 0.0179,-0.007 0.027,-0.0105 z m -0.0242,-0.0111 c 0.001,-6.8e-4 0.004,-10e-4 0.006,-0.002 -0.008,-0.002 -0.0159,-0.005 -0.0237,-0.006 0.006,0.002 0.0123,0.006 0.018,0.008 z m -1.0991,-0.0641 c -0.009,-6e-4 -0.0541,0.0105 -0.1013,0.0222 0.005,10e-4 0.008,0.003 0.013,0.004 0.0247,-0.006 0.057,-0.009 0.076,-0.0169 0.014,-0.006 0.0174,-0.009 0.0124,-0.009 z m 2.64223,0.006 c -0.006,10e-4 -0.0109,0.003 -0.018,0.004 0.0203,0.002 0.0404,0.005 0.0602,0.01 -0.0222,-0.007 -0.0166,-0.005 -0.0422,-0.014 z m -1.89261,0.005 c 0.005,-6.8e-4 -0.0582,0.007 -0.0653,0.008 0.004,6e-4 0.008,10e-4 0.0118,0.002 0.0113,-0.002 0.0491,-0.009 0.0535,-0.01 z m 1.98941,0.0268 c 0.0278,0.012 0.0482,0.0257 0.0433,0.042 0.0234,-0.003 0.0475,-0.004 0.072,-0.003 -0.0269,-0.009 -0.066,-0.0226 -0.11537,-0.0384 z m -1.71646,0.0122 c -0.019,0.003 -0.0388,0.006 -0.0608,0.0152 0.0119,0.003 0.0215,0.008 0.0338,0.0116 0.0103,-0.0105 0.0164,-0.016 0.027,-0.0268 z m 9.56886,0.0629 c -0.0553,10e-4 -0.0994,0.014 -0.0951,0.0309 0.0293,-0.004 0.0583,-0.0119 0.0878,-0.014 0.0498,-0.003 0.10811,0.0156 0.16883,0.0495 -10e-4,-0.004 -10e-4,-0.009 -0.003,-0.0134 -0.0125,-0.0405 -0.0915,-0.0547 -0.15871,-0.053 z m -1.16382,0.0606 c 0.006,-0.003 -0.02,0.0105 -0.0174,0.009 5.9e-4,-2e-5 10e-4,0 10e-4,0 0.007,-0.005 0.008,-0.004 0.0157,-0.009 z m -8.76297,0.106 c -0.0285,0.0263 -0.0502,0.0522 -0.0771,0.0792 0.0274,-3.8e-4 0.0548,-1e-5 0.0822,0 0.007,-0.019 0.0115,-0.041 0.0203,-0.0577 -0.004,0.0173 5.2e-4,0.0368 0.008,0.0577 0.004,2e-5 0.009,-4e-5 0.013,0 0.0183,-0.0181 0.0412,-0.0413 0.0585,-0.0582 -0.0248,-0.003 -0.0482,-0.01 -0.0726,-0.0145 0,0 -5.6e-4,0 -5.6e-4,0 -0.0105,-0.002 -0.021,-0.004 -0.0315,-0.006 l -5.6e-4,0 z m 2.91517,0.003 -0.16489,0.25801 c 0.0358,0.001 0.0717,0.001 0.10693,0.006 0.16803,0.0254 0.27724,0.0501 0.38043,0.0798 -0.017,-0.16668 -0.15465,-0.27007 -0.32247,-0.34421 z m 5.28109,0.24811 c -0.004,0.008 -0.006,0.0151 -0.008,0.0221 0.003,-4e-5 0.006,6.1e-4 0.008,5.8e-4 10e-4,-0.002 0.003,-0.004 0.005,-0.006 -0.004,-0.005 -0.004,-0.0109 -0.004,-0.0163 -2.9e-4,-8e-5 -7.1e-4,-5.8e-4 -10e-4,-5.8e-4 z m -7.25192,0.53989 c -0.0195,5.9e-4 -0.0357,0.005 -0.054,0.006 -0.0102,0.0219 -0.0174,0.0445 -0.0254,0.067 0.004,4e-5 0.006,-5e-5 0.01,0 0.0478,-0.0294 0.0788,-0.0473 0.11875,-0.0687 -2.8e-4,-5e-4 -7.1e-4,-6.6e-4 -10e-4,-10e-4 -0.0158,-6.8e-4 -0.033,-0.004 -0.0478,-0.003 z m 0.0698,0.0425 c -0.0132,0.0101 -0.0277,0.0205 -0.0422,0.0314 0.02,5.4e-4 0.0402,3.3e-4 0.0602,5.8e-4 -0.008,-0.0139 -0.011,-0.019 -0.018,-0.032 z m 9.22108,0.18113 c -0.0277,0.009 -0.0655,0.0127 -0.0968,0.0198 0.004,0.009 0.006,0.0186 0.01,0.0274 0.0635,0.16561 0.0564,0.0681 0.0861,0.16948 0.006,-3.7e-4 0.0155,10e-4 0.0214,5.8e-4 -0.009,-0.0719 -0.0141,-0.14466 -0.0203,-0.21723 z m 0.4474,0.19627 c -0.10806,0.005 -0.25107,0.0533 -0.39056,0.0973 0.0528,-0.003 0.10563,-0.005 0.15757,0.003 0.0684,0.0113 0.13068,0.0299 0.19528,0.0466 a 8.5864565,8.3588684 0 0 0 0.0377,-0.14676 z"
       id="path4333-4"
       inkscape:connector-curvature="0" />
    <path
       style="fill:#e3dedb;stroke:#00ffff;stroke-width:0"
       d="m 468.20522,650.51316 a 8.5864565,8.3588684 0 0 0 -8.58625,8.35872 8.5864565,8.3588684 0 0 0 0.036,0.67793 l 0.55096,0 c 0.30139,0 0.60243,-10e-6 0.90381,0 0.22783,0 0.45595,2e-5 0.68378,0 0.31216,6e-5 0.6243,-2.1e-4 0.93646,-5.9e-4 0.14932,0 0.29883,5e-5 0.44796,0.003 0.25951,-0.0154 0.70176,0.007 0.7333,10e-4 0.31484,-0.0252 0.65623,-0.0755 0.96347,0.0303 0.0147,0.005 0.0438,0.0142 0.0636,0.0204 0.11766,-0.0311 0.20418,-0.0337 0.2026,0.046 0.20444,-0.0612 0.0745,-0.1178 0.24255,-0.042 -0.053,0.0169 -0.16021,0.0416 -0.2403,0.0623 0.028,0.0103 0.0434,0.0196 0.0636,0.0297 0.18276,-0.0203 0.36352,-0.0754 0.54758,-0.0833 0.005,-2.1e-4 0.0149,0.003 0.0214,0.004 0.0515,-0.008 0.10295,-0.0114 0.15251,0.002 0.003,6.8e-4 0.01,0.003 0.013,0.004 0.029,-6.8e-4 0.057,-10e-4 0.0811,-10e-4 0.0508,-0.0172 0.0988,-0.0272 0.14407,-0.0291 0.0268,-0.0132 0.043,-0.0196 0.0281,-0.003 -0.009,-3e-4 -0.0188,0.002 -0.0281,0.003 -0.0197,0.01 -0.04,0.0195 -0.0692,0.0361 0.0132,0.003 0.0288,0.007 0.0467,0.0128 0.0193,-0.0197 0.0281,-0.0275 0.0484,-0.0483 0.001,-0.002 0.001,-0.002 0.003,-0.003 0.0393,10e-4 0.0792,0.0116 0.11987,0.0291 0.039,-0.0154 0.0683,-0.0252 0.0484,-0.01 -0.008,0.006 -0.0195,0.0111 -0.0287,0.0169 0.009,0.005 0.0207,0.0147 0.0304,0.0204 0.12987,-0.0361 0.25898,-0.0759 0.38888,-0.11183 0.0579,0.0108 0.11619,0.0229 0.17784,0.0343 0.0582,-0.002 0.11621,5.9e-4 0.17559,0.008 0.0415,-0.008 0.0886,-0.021 0.12268,-0.0245 0.0858,-0.009 0.22943,0.0305 0.34498,0.0856 0.0234,-0.008 0.046,-0.0176 0.0698,-0.0239 0.0145,-0.004 0.0365,-0.003 0.0574,-0.003 0.083,-0.0195 0.16592,-0.0383 0.25043,-0.0477 0.0654,-0.007 0.17294,-0.0254 0.19416,0.039 5.8e-4,10e-4 -10e-4,0.002 -10e-4,0.003 0.12457,-0.0259 0.24918,-0.0577 0.23018,0.032 -0.004,0.0199 -0.0113,0.0387 -0.0163,0.0582 l 0.28701,0 0.58247,0 0.57798,0 c 0.28588,0 0.57179,10e-6 0.85766,0 0.28916,2e-5 0.57809,2.4e-4 0.86724,0 0.19788,-6e-4 0.39585,0.002 0.59373,-5.8e-4 0.27937,-0.003 0.55824,-6.8e-4 0.83741,0.007 0.26838,-0.0102 0.91046,-0.0926 1.11598,0.0326 -0.0734,0.01 -0.1864,0.0339 -0.15701,0.0472 0.0664,-0.01 0.12219,-0.0227 0.17052,-0.0379 -0.004,-0.003 -0.008,-0.007 -0.013,-0.009 0.0407,-0.005 0.0716,-0.008 0.049,10e-4 -0.009,0.003 -0.0257,0.005 -0.0361,0.008 0.0273,0.0173 0.0528,0.0373 0.0788,0.0565 0.10374,-0.003 0.21423,-0.0126 0.31066,-0.0163 0.33904,-0.18576 0.70601,-0.27978 0.86836,-0.0687 0.32226,-0.15014 1.13048,0.0145 1.3788,0.0489 a 8.5864565,8.3588684 0 0 0 0.063,-0.89691 8.5864565,8.3588684 0 0 0 -8.58682,-8.35872 z m -1.87066,9.11702 c -0.007,-0.003 -0.013,-0.004 -0.0197,-0.007 -0.0325,0.0128 -0.0652,0.0273 -0.0991,0.0437 0.0113,0.003 0.0213,0.003 0.0332,0.007 0.0319,-0.0132 0.0601,-0.0279 0.0855,-0.0436 z m -0.0855,0.0436 c -0.005,0.002 -0.01,0.004 -0.0147,0.006 0.001,6.8e-4 0.004,10e-4 0.006,0.002 0.007,-0.002 0.0146,-0.004 0.022,-0.006 -0.005,-0.002 -0.008,-10e-4 -0.013,-0.003 z m -0.0147,0.006 c -0.008,-0.003 -0.0165,-0.008 -0.0242,-0.0111 -0.0254,0.0124 -0.0486,0.0242 -0.0546,0.0297 0.004,10e-4 0.006,0.002 0.01,0.003 0.0142,-0.003 0.028,-0.008 0.0422,-0.0111 0.009,-0.003 0.0179,-0.007 0.027,-0.0105 z m -0.0242,-0.0111 c 0.001,-6.8e-4 0.004,-10e-4 0.006,-0.002 -0.008,-0.002 -0.0159,-0.005 -0.0237,-0.006 0.006,0.002 0.0123,0.006 0.018,0.008 z m -1.0991,-0.0641 c -0.009,-6e-4 -0.0541,0.0105 -0.1013,0.0222 0.005,10e-4 0.008,0.003 0.013,0.004 0.0247,-0.006 0.057,-0.009 0.076,-0.0169 0.014,-0.006 0.0174,-0.009 0.0124,-0.009 z m 2.64223,0.006 c -0.006,10e-4 -0.0109,0.003 -0.018,0.004 0.0203,0.002 0.0404,0.005 0.0602,0.01 -0.0222,-0.007 -0.0166,-0.005 -0.0422,-0.014 z m -1.89261,0.005 c 0.005,-6.8e-4 -0.0582,0.007 -0.0653,0.008 0.004,6e-4 0.008,0.001 0.0118,0.002 0.0113,-0.002 0.0491,-0.009 0.0535,-0.01 z m 1.98941,0.0268 c 0.0278,0.012 0.0482,0.0257 0.0433,0.042 0.0234,-0.003 0.0475,-0.004 0.072,-0.003 -0.0269,-0.009 -0.066,-0.0226 -0.11537,-0.0384 z m -1.71646,0.0122 c -0.019,0.003 -0.0388,0.006 -0.0608,0.0152 0.0119,0.003 0.0215,0.008 0.0338,0.0116 0.0103,-0.0105 0.0164,-0.016 0.027,-0.0268 z m 9.56886,0.0629 c -0.0553,10e-4 -0.0994,0.014 -0.0951,0.0309 0.0293,-0.004 0.0583,-0.0119 0.0878,-0.014 0.0498,-0.003 0.10811,0.0156 0.16883,0.0495 -10e-4,-0.004 -10e-4,-0.009 -0.003,-0.0134 -0.0125,-0.0405 -0.0915,-0.0547 -0.15871,-0.053 z m -1.16382,0.0606 c 0.006,-0.003 -0.02,0.0105 -0.0174,0.009 5.9e-4,-2e-5 10e-4,0 10e-4,0 0.007,-0.005 0.008,-0.004 0.0157,-0.009 z m -8.76297,0.106 c -0.0285,0.0263 -0.0502,0.0522 -0.0771,0.0792 0.0274,-3.8e-4 0.0548,-1e-5 0.0822,0 0.007,-0.019 0.0115,-0.041 0.0203,-0.0577 -0.004,0.0173 5.2e-4,0.0368 0.008,0.0577 0.004,2e-5 0.009,-4e-5 0.013,0 0.0183,-0.0181 0.0412,-0.0413 0.0585,-0.0582 -0.0248,-0.003 -0.0482,-0.01 -0.0726,-0.0145 0,0 -5.6e-4,0 -5.6e-4,0 -0.0105,-0.002 -0.021,-0.004 -0.0315,-0.006 l -5.6e-4,0 z m 2.91517,0.003 -0.16489,0.25801 c 0.0358,10e-4 0.0717,10e-4 0.10693,0.006 0.16803,0.0254 0.27724,0.0501 0.38043,0.0798 -0.017,-0.16668 -0.15465,-0.27007 -0.32247,-0.34421 z m 5.28109,0.24811 c -0.004,0.008 -0.006,0.0151 -0.008,0.0221 0.003,-4e-5 0.006,6.1e-4 0.008,5.8e-4 10e-4,-0.002 0.003,-0.004 0.005,-0.006 -0.004,-0.005 -0.004,-0.0109 -0.004,-0.0163 -2.9e-4,-8e-5 -7.1e-4,-5.8e-4 -10e-4,-5.8e-4 z m -7.25192,0.53989 c -0.0195,5.9e-4 -0.0357,0.005 -0.054,0.006 -0.0102,0.0219 -0.0174,0.0445 -0.0254,0.067 0.004,4e-5 0.006,-5e-5 0.01,0 0.0478,-0.0294 0.0788,-0.0473 0.11875,-0.0687 -2.8e-4,-5e-4 -7.1e-4,-6.6e-4 -10e-4,-0.001 -0.0158,-6.8e-4 -0.033,-0.004 -0.0478,-0.003 z m 0.0698,0.0425 c -0.0132,0.0101 -0.0277,0.0205 -0.0422,0.0314 0.02,5.4e-4 0.0402,3.3e-4 0.0602,5.8e-4 -0.008,-0.0139 -0.011,-0.019 -0.018,-0.032 z m 9.22108,0.18113 c -0.0277,0.009 -0.0655,0.0127 -0.0968,0.0198 0.004,0.009 0.006,0.0186 0.01,0.0274 0.0635,0.16561 0.0564,0.0681 0.0861,0.16948 0.006,-3.7e-4 0.0155,10e-4 0.0214,5.8e-4 -0.009,-0.0719 -0.0141,-0.14466 -0.0203,-0.21723 z m 0.4474,0.19627 c -0.10806,0.005 -0.25107,0.0533 -0.39056,0.0973 0.0528,-0.003 0.10563,-0.005 0.15757,0.003 0.0684,0.0113 0.13068,0.0299 0.19528,0.0466 a 8.5864565,8.3588684 0 0 0 0.0377,-0.14676 z"
       id="path4333-42"
       inkscape:connector-curvature="0" />
    <rect
       style="fill:#483737;stroke:#00ffff;stroke-width:0"
       id="rect4412"
       width="100.51018"
       height="14.142136"
       x="260.11429"
       y="678.60577" />
    <rect
       style="fill:#483737;stroke:#00ffff;stroke-width:0"
       id="rect4412-6"
       width="100.51018"
       height="14.142136"
       x="394.7171"
       y="678.60577" />
    <path
       style="fill:none;fill-rule:evenodd;stroke:#000000;stroke-width:0.75333411px;stroke-linecap:butt;stroke-linejoin:miter;stroke-opacity:1"
       d="m 265.91392,682.46243 -0.38049,6.46835 6.46835,-3.8049 z"
       id="path4444"
       inkscape:connector-curvature="0" />
    <path
       style="fill:none;fill-rule:evenodd;stroke:#000000;stroke-width:0.75560915px;stroke-linecap:butt;stroke-linejoin:miter;stroke-opacity:1"
       d="m 279.6895,683.0213 6.8115,0.36351 0,5.45262 -6.8115,-0.36351 z"
       id="path4446"
       inkscape:connector-curvature="0" />
    <path
       style="fill:none;fill-rule:evenodd;stroke:#000000;stroke-width:1px;stroke-linecap:butt;stroke-linejoin:miter;stroke-opacity:1"
       d="m 275.26656,678.60576 0.50508,14.64721"
       id="path4450"
       inkscape:connector-curvature="0" />
    <path
       style="fill:none;fill-rule:evenodd;stroke:#000000;stroke-width:1px;stroke-linecap:butt;stroke-linejoin:miter;stroke-opacity:1"
       d="m 289.4087,679.11084 0.50508,13.13198"
       id="path4452"
       inkscape:connector-curvature="0" />
    <path
       style="fill:none;fill-rule:evenodd;stroke:#000000;stroke-width:1px;stroke-linecap:butt;stroke-linejoin:miter;stroke-opacity:1"
       d="M 296.47977,680.12099 Z"
       id="path4456"
       inkscape:connector-curvature="0" />
    <path
       style="fill:none;fill-rule:evenodd;stroke:#000000;stroke-width:0.85286802px;stroke-linecap:butt;stroke-linejoin:miter;stroke-opacity:1"
       d="m 293.88812,682.05028 0,8.25404 2.67521,0 -0.76434,-7.28298 z"
       id="path4458"
       inkscape:connector-curvature="0" />
    <path
       style="fill:none;fill-rule:evenodd;stroke:#000000;stroke-width:0.83175528px;stroke-linecap:butt;stroke-linejoin:miter;stroke-opacity:1"
       d="m 299.64826,681.89581 0,7.77809 2.70009,0 -0.77145,-6.86302 z"
       id="path4458-8"
       inkscape:connector-curvature="0" />
    <path
       style="fill:none;fill-rule:evenodd;stroke:#000000;stroke-width:1px;stroke-linecap:butt;stroke-linejoin:miter;stroke-opacity:1"
       d="m 305.57115,678.60576 0.50507,15.15229"
       id="path4475"
       inkscape:connector-curvature="0" />
    <ellipse
       style="fill:#ff0000;stroke:#00ffff;stroke-width:0"
       id="path4479"
       cx="313.90491"
       cy="685.92938"
       rx="3.7880721"
       ry="4.2931485" />
    <path
       style="fill:none;fill-rule:evenodd;stroke:#000000;stroke-width:1px;stroke-linecap:butt;stroke-linejoin:miter;stroke-opacity:1"
       d="m 320.72343,677.59561 0.50508,14.64721"
       id="path4481"
       inkscape:connector-curvature="0" />
    <path
       style="fill:none;fill-rule:evenodd;stroke:#000000;stroke-width:1px;stroke-linecap:butt;stroke-linejoin:miter;stroke-opacity:1"
       d="m 339.41125,677.09054 0.50508,14.64721"
       id="path4483"
       inkscape:connector-curvature="0" />
    <path
       style="fill:none;fill-rule:evenodd;stroke:#000000;stroke-width:0.85029608px;stroke-linecap:butt;stroke-linejoin:miter;stroke-opacity:1"
       d="m 331.6441,681.18698 -0.40078,7.82342 6.81327,-4.60201 z"
       id="path4444-5"
       inkscape:connector-curvature="0" />
    <path
       style="fill:none;fill-rule:evenodd;stroke:#000000;stroke-width:0.80085796px;stroke-linecap:butt;stroke-linejoin:miter;stroke-opacity:1"
       d="m 324.01562,681.15011 -0.37588,7.40001 6.38985,-4.35294 z"
       id="path4444-59"
       inkscape:connector-curvature="0" />
    <path
       style="fill:none;fill-rule:evenodd;stroke:#000000;stroke-width:0.77379525px;stroke-linecap:butt;stroke-linejoin:miter;stroke-opacity:1"
       d="m 357.32877,689.0558 0.34879,-7.44471 -5.92948,4.37924 z"
       id="path4444-59-8"
       inkscape:connector-curvature="0" />
    <path
       style="fill:none;fill-rule:evenodd;stroke:#000000;stroke-width:0.75333411px;stroke-linecap:butt;stroke-linejoin:miter;stroke-opacity:1"
       d="m 348.74473,688.5585 0.38049,-6.46836 -6.46835,3.80491 z"
       id="path4444-59-7"
       inkscape:connector-curvature="0" />
    <rect
       style="fill:#483737;stroke:#00ffff;stroke-width:0"
       id="rect4412-2"
       width="100.51018"
       height="14.142136"
       x="387.9592"
       y="678.75824" />
    <path
       style="fill:none;fill-rule:evenodd;stroke:#000000;stroke-width:0.75333411px;stroke-linecap:butt;stroke-linejoin:miter;stroke-opacity:1"
       d="m 393.75883,682.61491 -0.38049,6.46835 6.46835,-3.8049 z"
       id="path4444-0"
       inkscape:connector-curvature="0" />
    <path
       style="fill:none;fill-rule:evenodd;stroke:#000000;stroke-width:0.75560915px;stroke-linecap:butt;stroke-linejoin:miter;stroke-opacity:1"
       d="m 407.53441,683.17378 6.8115,0.36351 0,5.45262 -6.8115,-0.36351 z"
       id="path4446-6"
       inkscape:connector-curvature="0" />
    <path
       style="fill:none;fill-rule:evenodd;stroke:#000000;stroke-width:1px;stroke-linecap:butt;stroke-linejoin:miter;stroke-opacity:1"
       d="m 403.11147,678.75824 0.50508,14.64721"
       id="path4450-4"
       inkscape:connector-curvature="0" />
    <path
       style="fill:none;fill-rule:evenodd;stroke:#000000;stroke-width:1px;stroke-linecap:butt;stroke-linejoin:miter;stroke-opacity:1"
       d="m 417.25361,679.26332 0.50508,13.13198"
       id="path4452-3"
       inkscape:connector-curvature="0" />
    <path
       style="fill:none;fill-rule:evenodd;stroke:#000000;stroke-width:1px;stroke-linecap:butt;stroke-linejoin:miter;stroke-opacity:1"
       d="M 424.32468,680.27347 Z"
       id="path4456-0"
       inkscape:connector-curvature="0" />
    <path
       style="fill:none;fill-rule:evenodd;stroke:#000000;stroke-width:0.85286802px;stroke-linecap:butt;stroke-linejoin:miter;stroke-opacity:1"
       d="m 421.73303,682.20276 0,8.25404 2.67521,0 -0.76434,-7.28298 z"
       id="path4458-9"
       inkscape:connector-curvature="0" />
    <path
       style="fill:none;fill-rule:evenodd;stroke:#000000;stroke-width:0.83175528px;stroke-linecap:butt;stroke-linejoin:miter;stroke-opacity:1"
       d="m 427.49317,682.04829 0,7.77809 2.70009,0 -0.77145,-6.86302 z"
       id="path4458-8-1"
       inkscape:connector-curvature="0" />
    <path
       style="fill:none;fill-rule:evenodd;stroke:#000000;stroke-width:1px;stroke-linecap:butt;stroke-linejoin:miter;stroke-opacity:1"
       d="m 433.41606,678.75824 0.50507,15.15229"
       id="path4475-1"
       inkscape:connector-curvature="0" />
    <ellipse
       style="fill:#ff0000;stroke:#00ffff;stroke-width:0"
       id="path4479-3"
       cx="441.74982"
       cy="686.08185"
       rx="3.7880721"
       ry="4.2931485" />
    <path
       style="fill:none;fill-rule:evenodd;stroke:#000000;stroke-width:1px;stroke-linecap:butt;stroke-linejoin:miter;stroke-opacity:1"
       d="m 448.56834,677.74809 0.50508,14.64721"
       id="path4481-5"
       inkscape:connector-curvature="0" />
    <path
       style="fill:none;fill-rule:evenodd;stroke:#000000;stroke-width:1px;stroke-linecap:butt;stroke-linejoin:miter;stroke-opacity:1"
       d="m 467.25616,677.24302 0.50508,14.64721"
       id="path4483-9"
       inkscape:connector-curvature="0" />
    <path
       style="fill:none;fill-rule:evenodd;stroke:#000000;stroke-width:0.85029608px;stroke-linecap:butt;stroke-linejoin:miter;stroke-opacity:1"
       d="m 459.48901,681.33946 -0.40078,7.82342 6.81327,-4.60201 z"
       id="path4444-5-6"
       inkscape:connector-curvature="0" />
    <path
       style="fill:none;fill-rule:evenodd;stroke:#000000;stroke-width:0.80085796px;stroke-linecap:butt;stroke-linejoin:miter;stroke-opacity:1"
       d="m 451.86053,681.30259 -0.37588,7.40001 6.38985,-4.35294 z"
       id="path4444-59-9"
       inkscape:connector-curvature="0" />
    <path
       style="fill:none;fill-rule:evenodd;stroke:#000000;stroke-width:0.77379525px;stroke-linecap:butt;stroke-linejoin:miter;stroke-opacity:1"
       d="m 485.17368,689.20828 0.34879,-7.44471 -5.92948,4.37924 z"
       id="path4444-59-8-3"
       inkscape:connector-curvature="0" />
    <path
       style="fill:none;fill-rule:evenodd;stroke:#000000;stroke-width:0.75333411px;stroke-linecap:butt;stroke-linejoin:miter;stroke-opacity:1"
       d="m 476.58964,688.71098 0.38049,-6.46836 -6.46835,3.80491 z"
       id="path4444-59-7-3"
       inkscape:connector-curvature="0" />
  </g>
  <g
     inkscape:groupmode="layer"
     id="layer4"
     inkscape:label="Sonie Logo">
    <text
       xml:space="preserve"
       style="font-style:normal;font-weight:normal;font-size:40px;line-height:125%;font-family:'Viner Hand ITC';letter-spacing:0px;word-spacing:0px;fill:#ff0000;fill-opacity:1;stroke:none;stroke-width:1px;stroke-linecap:butt;stroke-linejoin:miter;stroke-opacity:1;-inkscape-font-specification:'Viner Hand ITC';font-stretch:normal;font-variant:normal;"
       x="330"
       y="613.79083"
       id="text5291"
       sodipodi:linespacing="125%"
       inkscape:export-filename="C:\Users\Darsh\Desktop\GGJ18\Sprites\RadioBallSprite.png"
       inkscape:export-xdpi="90"
       inkscape:export-ydpi="90"><tspan
         sodipodi:role="line"
         x="330"
         y="613.79083"
         id="tspan5295"
         style="font-size:20px;-inkscape-font-specification:'Viner Hand ITC';font-family:'Viner Hand ITC';font-weight:normal;font-style:normal;font-stretch:normal;font-variant:normal;">Pace Guy</tspan></text>
  </g>
  <g
     inkscape:groupmode="layer"
     id="layer2"
     inkscape:label="Signals" />
</svg>
